<svg width="29" height="22" viewBox="0 0 29 22" fill="none" xmlns="http://www.w3.org/2000/svg">
<path d="M0.892836 9.70013C0.0946751 10.4163 0.0946751 11.5794 0.892836 12.2956L11.1093 21.4629C11.9074 22.179 13.2037 22.179 14.0018 21.4629C14.8 20.7467 14.8 19.5836 14.0018 18.8674L7.26535 12.8285L26.8554 12.8285C27.9856 12.8285 28.8987 12.0091 28.8987 10.995C28.8987 9.98087 27.9856 9.16155 26.8554 9.16155L7.27173 9.16155L13.9954 3.12262C14.7936 2.40643 14.7936 1.24333 13.9954 0.527143C13.1973 -0.189049 11.9011 -0.189049 11.1029 0.527143L0.88645 9.6944L0.892836 9.70013Z" fill="#006A81"/>
</svg>
