<svg width="30" height="30" viewBox="0 0 30 30" fill="none" xmlns="http://www.w3.org/2000/svg">
<circle cx="15" cy="15" r="15" fill="#006A81"/>
<path d="M11.225 10.6688L10.4094 13H19.5906L18.775 10.6688C18.6344 10.2687 18.2563 10 17.8313 10H12.1687C11.7437 10 11.3656 10.2687 11.225 10.6688ZM8.2375 13.15L9.3375 10.0094C9.75938 8.80625 10.8937 8 12.1687 8H17.8313C19.1062 8 20.2406 8.80625 20.6625 10.0094L21.7625 13.15C22.4875 13.45 23 14.1656 23 15V19.5V21C23 21.5531 22.5531 22 22 22H21C20.4469 22 20 21.5531 20 21V19.5H10V21C10 21.5531 9.55312 22 9 22H8C7.44687 22 7 21.5531 7 21V19.5V15C7 14.1656 7.5125 13.45 8.2375 13.15ZM11 16C11 15.7348 10.8946 15.4804 10.7071 15.2929C10.5196 15.1054 10.2652 15 10 15C9.73478 15 9.48043 15.1054 9.29289 15.2929C9.10536 15.4804 9 15.7348 9 16C9 16.2652 9.10536 16.5196 9.29289 16.7071C9.48043 16.8946 9.73478 17 10 17C10.2652 17 10.5196 16.8946 10.7071 16.7071C10.8946 16.5196 11 16.2652 11 16ZM20 17C20.2652 17 20.5196 16.8946 20.7071 16.7071C20.8946 16.5196 21 16.2652 21 16C21 15.7348 20.8946 15.4804 20.7071 15.2929C20.5196 15.1054 20.2652 15 20 15C19.7348 15 19.4804 15.1054 19.2929 15.2929C19.1054 15.4804 19 15.7348 19 16C19 16.2652 19.1054 16.5196 19.2929 16.7071C19.4804 16.8946 19.7348 17 20 17Z" fill="white"/>
</svg>
