<svg width="25" height="25" viewBox="0 0 25 25" fill="none" xmlns="http://www.w3.org/2000/svg">
<path d="M12.5 1C6.15465 1 1 6.15465 1 12.5C1 18.8454 6.15465 24 12.5 24C18.8454 24 24 18.8454 24 12.5C24 6.15465 18.8454 1 12.5 1ZM12.5 2C18.3049 2 23 6.69509 23 12.5C23 18.3049 18.3049 23 12.5 23C6.69509 23 2 18.3049 2 12.5C2 6.69509 6.69509 2 12.5 2ZM12.4922 3.49316C12.3597 3.49523 12.2335 3.54976 12.1413 3.64479C12.049 3.73981 11.9982 3.86756 12 4V11.0869C11.7077 11.1902 11.4547 11.3816 11.2756 11.6346C11.0965 11.8877 11.0002 12.19 11 12.5C11.0005 12.7235 11.0508 12.944 11.1475 13.1455L8.14648 16.1465C8.0985 16.1926 8.06018 16.2477 8.03379 16.3088C8.0074 16.3699 7.99346 16.4356 7.99278 16.5021C7.9921 16.5686 8.0047 16.6346 8.02985 16.6962C8.05499 16.7578 8.09217 16.8137 8.13921 16.8608C8.18625 16.9078 8.24221 16.945 8.3038 16.9701C8.36538 16.9953 8.43137 17.0079 8.49789 17.0072C8.56441 17.0065 8.63013 16.9926 8.69119 16.9662C8.75226 16.9398 8.80744 16.9015 8.85352 16.8535L11.8545 13.8525C12.056 13.9492 12.2765 13.9995 12.5 14C12.8978 14 13.2794 13.842 13.5607 13.5607C13.842 13.2794 14 12.8978 14 12.5C13.9996 12.1902 13.9032 11.8881 13.7241 11.6352C13.5451 11.3824 13.2921 11.1912 13 11.0879V4C13.0009 3.93311 12.9884 3.86671 12.9632 3.80474C12.938 3.74277 12.9006 3.68648 12.8532 3.63922C12.8059 3.59196 12.7495 3.55469 12.6875 3.5296C12.6255 3.50451 12.5591 3.49212 12.4922 3.49316Z" fill="black"/>
</svg>
