<svg width="30" height="30" viewBox="0 0 30 30" fill="none" xmlns="http://www.w3.org/2000/svg">
<circle cx="15" cy="15" r="15" fill="#006A81"/>
<g clip-path="url(#clip0_77_655)">
<path d="M16.35 16.35C15.25 17.485 15.17 18.9 15.075 22C17.965 22 19.96 21.99 20.99 20.99C21.99 19.96 22 17.87 22 15.075C18.9 15.175 17.485 15.25 16.35 16.35ZM8 15.075C8 17.87 8.01 19.96 9.01 20.99C10.04 21.99 12.035 22 14.925 22C14.825 18.9 14.75 17.485 13.65 16.35C12.515 15.25 11.1 15.17 8 15.075ZM14.925 8C12.04 8 10.04 8.01 9.01 9.01C8.01 10.04 8 12.13 8 14.925C11.1 14.825 12.515 14.75 13.65 13.65C14.75 12.515 14.83 11.1 14.925 8ZM16.35 13.65C15.25 12.515 15.17 11.1 15.075 8C17.965 8 19.96 8.01 20.99 9.01C21.99 10.04 22 12.13 22 14.925C18.9 14.825 17.485 14.75 16.35 13.65Z" fill="white"/>
<path d="M22 15.075V14.925C18.9 14.825 17.485 14.75 16.35 13.65C15.25 12.515 15.17 11.1 15.075 8H14.925C14.825 11.1 14.75 12.515 13.65 13.65C12.515 14.75 11.1 14.83 8 14.925V15.075C11.1 15.175 12.515 15.25 13.65 16.35C14.75 17.485 14.83 18.9 14.925 22H15.075C15.175 18.9 15.25 17.485 16.35 16.35C17.485 15.25 18.9 15.17 22 15.075Z" fill="#006A81"/>
</g>
<defs>
<clipPath id="clip0_77_655">
<rect width="14" height="14" fill="white" transform="translate(8 8)"/>
</clipPath>
</defs>
</svg>
