<svg width="30" height="30" viewBox="0 0 30 30" fill="none" xmlns="http://www.w3.org/2000/svg">
<circle cx="15" cy="15" r="15" fill="#006A81"/>
<g clip-path="url(#clip0_82_1088)">
<path d="M21 7C20.5 7 17 8 17 12.5V16C17 17.1031 17.8969 18 19 18H20V22C20 22.5531 20.4469 23 21 23C21.5531 23 22 22.5531 22 22V18V14.5V8C22 7.44687 21.5531 7 21 7ZM10 7.5C10 7.24375 9.80938 7.03125 9.55313 7.00313C9.29688 6.975 9.06875 7.14375 9.0125 7.39062L8.06562 11.65C8.02187 11.8469 8 12.0469 8 12.2469C8 13.6812 9.09687 14.8594 10.5 14.9875V22C10.5 22.5531 10.9469 23 11.5 23C12.0531 23 12.5 22.5531 12.5 22V14.9875C13.9031 14.8594 15 13.6812 15 12.2469C15 12.0469 14.9781 11.8469 14.9344 11.65L13.9875 7.39062C13.9313 7.14062 13.6969 6.975 13.4437 7.00313C13.1906 7.03125 13 7.24375 13 7.5V11.6937C13 11.8625 12.8625 12 12.6937 12C12.5344 12 12.4031 11.8781 12.3875 11.7188L11.9969 7.45625C11.975 7.19688 11.7594 7 11.5 7C11.2406 7 11.025 7.19688 11.0031 7.45625L10.6156 11.7188C10.6 11.8781 10.4688 12 10.3094 12C10.1406 12 10.0031 11.8625 10.0031 11.6937V7.5H10ZM11.5094 12.25H11.5H11.4906L11.5 12.2281L11.5094 12.25Z" fill="white"/>
</g>
<defs>
<clipPath id="clip0_82_1088">
<rect width="14" height="16" fill="white" transform="translate(8 7)"/>
</clipPath>
</defs>
</svg>
