<svg width="30" height="30" viewBox="0 0 30 30" fill="none" xmlns="http://www.w3.org/2000/svg">
<circle cx="15" cy="15" r="15" fill="#006A81"/>
<g clip-path="url(#clip0_82_1080)">
<path d="M15 8.5C11.4094 8.5 8.5 11.4094 8.5 15V16.25C8.5 16.6656 8.16562 17 7.75 17C7.33437 17 7 16.6656 7 16.25V15C7 10.5813 10.5813 7 15 7C19.4187 7 23 10.5813 23 15V19.5031C23 21.0219 21.7688 22.2531 20.2469 22.2531L16.8 22.25C16.5406 22.6969 16.0562 23 15.5 23H14.5C13.6719 23 13 22.3281 13 21.5C13 20.6719 13.6719 20 14.5 20H15.5C16.0562 20 16.5406 20.3031 16.8 20.75L20.25 20.7531C20.9406 20.7531 21.5 20.1938 21.5 19.5031V15C21.5 11.4094 18.5906 8.5 15 8.5ZM11.5 13.5H12C12.5531 13.5 13 13.9469 13 14.5V18C13 18.5531 12.5531 19 12 19H11.5C10.3969 19 9.5 18.1031 9.5 17V15.5C9.5 14.3969 10.3969 13.5 11.5 13.5ZM18.5 13.5C19.6031 13.5 20.5 14.3969 20.5 15.5V17C20.5 18.1031 19.6031 19 18.5 19H18C17.4469 19 17 18.5531 17 18V14.5C17 13.9469 17.4469 13.5 18 13.5H18.5Z" fill="white"/>
</g>
<defs>
<clipPath id="clip0_82_1080">
<rect width="16" height="16" fill="white" transform="translate(7 7)"/>
</clipPath>
</defs>
</svg>
