<svg width="30" height="30" viewBox="0 0 30 30" fill="none" xmlns="http://www.w3.org/2000/svg">
<circle cx="15" cy="15" r="15" fill="#006A81"/>
<g clip-path="url(#clip0_77_647)">
<path d="M15.0031 11.4063C13.0156 11.4063 11.4125 13.0094 11.4125 14.9969C11.4125 16.9844 13.0156 18.5875 15.0031 18.5875C16.9906 18.5875 18.5938 16.9844 18.5938 14.9969C18.5938 13.0094 16.9906 11.4063 15.0031 11.4063ZM15.0031 17.3313C13.7188 17.3313 12.6688 16.2844 12.6688 14.9969C12.6688 13.7094 13.7156 12.6625 15.0031 12.6625C16.2906 12.6625 17.3375 13.7094 17.3375 14.9969C17.3375 16.2844 16.2875 17.3313 15.0031 17.3313ZM19.5781 11.2594C19.5781 11.725 19.2031 12.0969 18.7407 12.0969C18.275 12.0969 17.9031 11.7219 17.9031 11.2594C17.9031 10.7969 18.2782 10.4219 18.7407 10.4219C19.2031 10.4219 19.5781 10.7969 19.5781 11.2594ZM21.9563 12.1094C21.9031 10.9875 21.6469 9.99376 20.825 9.17501C20.0063 8.35626 19.0125 8.10001 17.8906 8.04376C16.7344 7.97813 13.2688 7.97813 12.1125 8.04376C10.9938 8.09688 10 8.35313 9.17815 9.17188C8.35627 9.99063 8.10315 10.9844 8.0469 12.1063C7.98127 13.2625 7.98127 16.7281 8.0469 17.8844C8.10002 19.0063 8.35627 20 9.17815 20.8188C10 21.6375 10.9906 21.8938 12.1125 21.95C13.2688 22.0156 16.7344 22.0156 17.8906 21.95C19.0125 21.8969 20.0063 21.6406 20.825 20.8188C21.6438 20 21.9 19.0063 21.9563 17.8844C22.0219 16.7281 22.0219 13.2656 21.9563 12.1094ZM20.4625 19.125C20.2188 19.7375 19.7469 20.2094 19.1313 20.4563C18.2094 20.8219 16.0219 20.7375 15.0031 20.7375C13.9844 20.7375 11.7938 20.8188 10.875 20.4563C10.2625 20.2125 9.79065 19.7406 9.54377 19.125C9.17815 18.2031 9.26252 16.0156 9.26252 14.9969C9.26252 13.9781 9.18127 11.7875 9.54377 10.8688C9.78752 10.2563 10.2594 9.78438 10.875 9.53751C11.7969 9.17188 13.9844 9.25626 15.0031 9.25626C16.0219 9.25626 18.2125 9.17501 19.1313 9.53751C19.7438 9.78126 20.2156 10.2531 20.4625 10.8688C20.8281 11.7906 20.7438 13.9781 20.7438 14.9969C20.7438 16.0156 20.8281 18.2063 20.4625 19.125Z" fill="white"/>
</g>
<defs>
<clipPath id="clip0_77_647">
<rect width="14" height="16" fill="white" transform="translate(8 7)"/>
</clipPath>
</defs>
</svg>
