<svg width="25" height="26" viewBox="0 0 25 26" fill="none" xmlns="http://www.w3.org/2000/svg">
<g clip-path="url(#clip0_85_3172)">
<path d="M12.5 25.5C15.8152 25.5 18.9946 24.183 21.3388 21.8388C23.683 19.4946 25 16.3152 25 13C25 9.68479 23.683 6.50537 21.3388 4.16117C18.9946 1.81696 15.8152 0.5 12.5 0.5C9.18479 0.5 6.00537 1.81696 3.66117 4.16117C1.31696 6.50537 0 9.68479 0 13C0 16.3152 1.31696 19.4946 3.66117 21.8388C6.00537 24.183 9.18479 25.5 12.5 25.5ZM18.0176 10.7051L11.7676 16.9551C11.3086 17.4141 10.5664 17.4141 10.1123 16.9551L6.98731 13.8301C6.52832 13.3711 6.52832 12.6289 6.98731 12.1748C7.44629 11.7207 8.18848 11.7158 8.64258 12.1748L10.9375 14.4697L16.3574 9.04492C16.8164 8.58594 17.5586 8.58594 18.0127 9.04492C18.4668 9.50391 18.4717 10.2461 18.0127 10.7002L18.0176 10.7051Z" fill="#F26327"/>
</g>
<defs>
<clipPath id="clip0_85_3172">
<rect width="25" height="25" fill="white" transform="translate(0 0.5)"/>
</clipPath>
</defs>
</svg>
