<svg width="25" height="25" viewBox="0 0 25 25" fill="none" xmlns="http://www.w3.org/2000/svg">
<g clip-path="url(#clip0_77_60)">
<path d="M17.7096 0.915527L15.3463 3.27881L21.694 9.62646L24.0573 7.26318C25.278 6.04248 25.278 4.06494 24.0573 2.84424L22.1334 0.915527C20.9127 -0.305176 18.9352 -0.305176 17.7145 0.915527H17.7096ZM14.2428 4.38232L2.86099 15.769C2.35318 16.2769 1.98208 16.9067 1.77701 17.5952L0.0484897 23.4692C-0.0735806 23.8843 0.0387241 24.3286 0.341458 24.6313C0.644193 24.9341 1.08853 25.0464 1.49869 24.9292L7.37271 23.2007C8.06118 22.9956 8.69107 22.6245 9.19888 22.1167L20.5905 10.73L14.2428 4.38232Z" fill="#006A81"/>
</g>
<defs>
<clipPath id="clip0_77_60">
<rect width="25" height="25" fill="white"/>
</clipPath>
</defs>
</svg>
