<svg width="25" height="25" viewBox="0 0 25 25" fill="none" xmlns="http://www.w3.org/2000/svg">
<path d="M8.05176 1.20227C7.67578 0.29407 6.68457 -0.189329 5.7373 0.0694603L1.44043 1.24134C0.59082 1.47571 0 2.24719 0 3.1261C0 15.2062 9.79492 25.0011 21.875 25.0011C22.7539 25.0011 23.5254 24.4103 23.7598 23.5607L24.9316 19.2638C25.1904 18.3165 24.707 17.3253 23.7988 16.9493L19.1113 14.9962C18.3154 14.6642 17.3926 14.8937 16.8506 15.5626L14.8779 17.9699C11.4404 16.3439 8.65723 13.5607 7.03125 10.1232L9.43848 8.1554C10.1074 7.60852 10.3369 6.69055 10.0049 5.89466L8.05176 1.20716V1.20227Z" fill="#006A81"/>
</svg>
