<svg width="30" height="30" viewBox="0 0 30 30" fill="none" xmlns="http://www.w3.org/2000/svg">
<circle cx="15" cy="15" r="15" fill="#006A81"/>
<g clip-path="url(#clip0_84_2658)">
<path d="M19.6171 15.5997C19.3907 15.3138 19.4555 15.1867 19.6171 14.9312C19.62 14.9282 21.4884 12.3464 21.6809 11.4708L21.6821 11.4702C21.7777 11.1512 21.6821 10.9167 21.2195 10.9167H19.6888C19.2992 10.9167 19.1195 11.1179 19.0232 11.3431C19.0232 11.3431 18.2439 13.2086 17.1414 14.4178C16.7856 14.7672 16.6211 14.8792 16.4268 14.8792C16.3312 14.8792 16.1824 14.7672 16.1824 14.4482V11.4702C16.1824 11.0876 16.0733 10.9167 15.7507 10.9167H13.3439C13.0995 10.9167 12.9542 11.0952 12.9542 11.2614C12.9542 11.6242 13.5055 11.7077 13.5627 12.7285V14.9434C13.5627 15.4287 13.4746 15.518 13.2792 15.518C12.7588 15.518 11.4959 13.6449 10.7475 11.5012C10.5964 11.0852 10.4488 10.9172 10.0562 10.9172H8.525C8.08808 10.9172 8 11.1185 8 11.3437C8 11.7415 8.52033 13.7196 10.4197 16.3329C11.6855 18.1167 13.4682 19.0833 15.0898 19.0833C16.0646 19.0833 16.1836 18.8687 16.1836 18.4994C16.1836 16.7949 16.0955 16.6339 16.5837 16.6339C16.8101 16.6339 17.1997 16.7459 18.1097 17.6063C19.1498 18.6266 19.3207 19.0833 19.9029 19.0833H21.4336C21.8699 19.0833 22.091 18.8687 21.9638 18.4452C21.6727 17.5544 19.7057 15.7222 19.6171 15.5997Z" fill="white"/>
</g>
<defs>
<clipPath id="clip0_84_2658">
<rect width="14" height="14" fill="white" transform="translate(8 8)"/>
</clipPath>
</defs>
</svg>
