<svg width="103" height="70" viewBox="0 0 103 70" fill="none" xmlns="http://www.w3.org/2000/svg">
<path fill-rule="evenodd" clip-rule="evenodd" d="M28.0201 37.2829C32.8698 40.3587 38.8667 42.211 45.0608 42.211C49.2392 42.211 53.8325 41.2659 58.0587 39.3123C58.6961 39.0173 59.2305 39.7701 58.6065 40.2718C54.8368 43.3039 49.3711 44.9166 44.6649 44.9166C38.0687 44.9166 32.1292 42.2594 27.6339 37.8358C27.2811 37.4885 27.5959 37.0138 28.0201 37.2829ZM62.0548 37.6554C62.4792 38.1435 61.944 41.5226 59.8726 43.1351C59.554 43.3833 59.2512 43.2511 59.3923 42.9232L59.6365 42.3496C60.1391 41.1475 60.8268 39.3258 60.4076 38.8264C59.9135 38.2377 57.1429 38.5474 55.8985 38.6859C55.5215 38.728 55.463 38.4219 55.8029 38.1995C58.0128 36.7548 61.634 37.1721 62.0548 37.6554ZM40.1296 25.6342C40.9541 25.6342 41.8519 25.9745 42.4016 26.7403C42.9935 27.5485 42.9076 28.7025 42.8975 29.7461L42.8951 36.2888C42.8951 36.4908 42.7254 36.6528 42.5165 36.6528H40.5558C40.3587 36.64 40.2033 36.4834 40.2033 36.2897L40.2028 30.9308C40.2028 30.5054 40.2396 29.4418 40.1478 29.0376C40.0013 28.3569 39.5616 28.1655 38.9935 28.1655C38.5173 28.1655 38.0223 28.4845 37.8208 28.9952C37.6696 29.3781 37.6422 29.9523 37.638 30.4578L37.6377 36.2888C37.6377 36.4908 37.4681 36.6528 37.259 36.6528H35.2984C35.1014 36.64 34.9459 36.4834 34.9459 36.2897L34.9439 30.9308C34.9439 29.8035 35.1272 28.1442 33.7346 28.1442C32.438 28.1442 32.3793 29.5093 32.3783 30.6385L32.3779 36.2888C32.3782 36.4908 32.2085 36.6528 31.9992 36.6528H30.0364C29.8496 36.6405 29.7002 36.4995 29.6853 36.3199L29.6866 26.2113C29.6866 26.0091 29.8561 25.8474 30.0654 25.8474L31.8934 25.8469C32.0847 25.8568 32.2383 26.002 32.2504 26.1863V27.5062H32.2871C32.7636 26.2298 33.6614 25.6342 34.8707 25.6342C36.0985 25.6342 36.868 26.2298 37.4177 27.5062C37.894 26.2298 38.9751 25.6342 40.1296 25.6342ZM69.3158 25.0833C72.1998 25.0833 73.7593 27.6689 73.7593 30.9556C73.7593 34.1326 72.0367 36.6528 69.3158 36.6528C66.4862 36.6528 64.9445 34.067 64.9445 30.8461C64.9445 27.603 66.5043 25.0833 69.3158 25.0833ZM80.2512 25.6342C81.1525 25.6342 82.0355 25.9533 82.599 26.8255C83.0959 27.5888 83.1235 28.8456 83.125 29.8071L83.1251 36.3342C83.1023 36.5136 82.9382 36.6528 82.7394 36.6528H80.7223C80.5361 36.6409 80.3859 36.5071 80.364 36.3342L80.3657 30.5677C80.3753 29.4881 80.3827 28.123 79.1055 28.123C78.6171 28.123 78.1664 28.442 77.9413 28.9313C77.6853 29.4921 77.6307 30.0528 77.6229 30.6616L77.6218 36.2888C77.6182 36.4908 77.4443 36.6528 77.23 36.6528H75.2254C75.0239 36.64 74.8644 36.4834 74.8644 36.2897L74.8612 26.1773C74.8781 25.9926 75.0449 25.8474 75.2476 25.8474L77.114 25.8469C77.2895 25.8556 77.4345 25.9731 77.4714 26.13V27.6762H77.5093C78.0728 26.2935 78.8613 25.6342 80.2512 25.6342ZM62.6879 25.6342C62.9077 25.6342 63.0843 25.7914 63.0848 26.0144L63.0843 27.3054C63.0826 27.5219 62.8968 27.8045 62.5663 28.2529L59.0034 33.2423C60.326 33.2121 61.7251 33.406 62.9269 34.0686C63.1978 34.2178 63.2704 34.4395 63.2917 34.6562V36.2622C63.2917 36.4836 63.0449 36.7397 62.7854 36.6065C60.6681 35.5188 57.8585 35.3998 55.5176 36.6195C55.2783 36.7446 55.0279 36.4922 55.0279 36.2708V34.744C55.0279 34.4998 55.0326 34.0819 55.2837 33.7094L59.4119 27.9011L55.8176 27.9004C55.598 27.9004 55.4217 27.7468 55.4202 27.5214V26.0163C55.4212 25.7872 55.5973 25.6345 55.8093 25.6349L62.6879 25.6342ZM49.6639 25.1201C50.6357 25.1201 51.9068 25.3798 52.6731 26.1159C53.6451 27.0252 53.5515 28.2372 53.5515 29.5577V32.6735C53.5515 33.6107 53.9407 34.022 54.3058 34.5269C54.4334 34.7089 54.4622 34.9253 54.2992 35.0582L53.8637 35.4289C53.4854 35.7541 53.0463 36.1378 52.7669 36.3864L52.7624 36.3821C52.63 36.5008 52.4394 36.5087 52.2902 36.4286C51.6266 35.8765 51.5076 35.6213 51.145 35.0959C50.048 36.2143 49.2711 36.5495 47.8507 36.5495C46.1685 36.5495 44.8599 35.5106 44.8599 33.4326C44.8599 31.809 45.7383 30.7052 46.9908 30.1639C48.0748 29.6875 49.5891 29.6011 50.7479 29.4711L50.7494 28.8417C50.7468 28.4632 50.7152 28.0695 50.5049 27.7611C50.2618 27.3931 49.7946 27.2416 49.3833 27.2416C48.6559 27.2416 48.0056 27.5977 47.8031 28.3347L47.7773 28.4425C47.7428 28.6227 47.6114 28.801 47.4303 28.81L45.4936 28.6004C45.3302 28.5634 45.1484 28.4321 45.1955 28.1823C45.6407 25.8306 47.7623 25.1201 49.6639 25.1201ZM23.4703 25.1201C24.4424 25.1201 25.7134 25.3798 26.4799 26.1159C27.4144 26.9902 27.364 28.1444 27.3588 29.4059L27.3584 32.6735C27.3584 33.6107 27.7471 34.022 28.1125 34.5269C28.2399 34.7089 28.2686 34.9253 28.1059 35.0582L27.5052 35.5713C27.1698 35.861 26.813 36.1733 26.5738 36.3864L26.569 36.3821C26.4367 36.5008 26.2458 36.5087 26.0969 36.4286C25.4331 35.8765 25.3143 35.6213 24.9514 35.0959C23.8549 36.2143 23.078 36.5495 21.6574 36.5495C19.975 36.5495 18.6667 35.5106 18.6667 33.4326C18.6667 31.809 19.5452 30.7052 20.7975 30.1639C21.8817 29.6875 23.3957 29.6011 24.5546 29.4711L24.556 28.8417C24.5534 28.4632 24.5219 28.0695 24.3116 27.7611C24.0686 27.3931 23.6011 27.2416 23.1902 27.2416C22.4628 27.2416 21.8121 27.5977 21.6099 28.3347L21.5841 28.4425C21.5495 28.6227 21.4182 28.801 21.2369 28.81L19.3005 28.6004C19.1368 28.5634 18.9548 28.4321 19.0022 28.1823C19.4471 25.8306 21.569 25.1201 23.4703 25.1201ZM50.7479 31.8112L50.7479 31.0731L50.5251 31.0757C49.1498 31.1086 47.7759 31.4703 47.7759 33.0862C47.7759 33.9519 48.2244 34.5365 48.9907 34.5365C49.5517 34.5365 50.0562 34.1903 50.3739 33.6275C50.7142 33.027 50.7456 32.4593 50.7479 31.8112ZM24.5546 31.8112L24.5546 31.0731L24.3318 31.0757C22.9567 31.1086 21.5826 31.4703 21.5826 33.0862C21.5826 33.9519 22.0313 34.5365 22.7976 34.5365C23.3583 34.5365 23.8631 34.1903 24.1806 33.6275C24.521 33.027 24.5523 32.4593 24.5546 31.8112ZM69.3339 27.2088C67.9366 27.2088 67.8156 29.1458 67.8104 30.4205L67.8129 31.0929C67.8328 32.4645 67.9953 34.5054 69.3158 34.5054C70.8214 34.5054 70.8937 32.3141 70.8937 30.9775C70.8937 30.1011 70.8575 29.0494 70.6036 28.2166C70.3856 27.4935 69.9503 27.2088 69.3339 27.2088Z" fill="#3B3A40"/>
</svg>
