<svg width="114" height="70" viewBox="0 0 114 70" fill="none" xmlns="http://www.w3.org/2000/svg">
<path fill-rule="evenodd" clip-rule="evenodd" d="M16.4815 29.1991C16.6331 29.1238 16.8151 29.184 16.8909 29.3346L22.1363 39.7682C22.1514 39.8134 22.1666 39.8736 22.1666 39.9188C22.1666 40.0814 22.0438 40.2196 21.8866 40.2456L21.8331 40.25H18.0279C17.9239 40.25 17.8311 40.1947 17.7685 40.1125L17.7398 40.0694L15.9055 36.4259C14.8148 34.2156 14.9421 31.6211 16.2178 29.5278L16.3299 29.3497C16.3603 29.2894 16.4057 29.2443 16.4815 29.1991ZM65.2128 30.9215L65.3779 30.9197C66.3322 30.8902 67.2736 31.0798 68.1545 31.476L68.3567 31.571V33.7953C67.3886 33.3187 66.3609 32.985 65.3184 32.985C64.4545 32.985 63.9928 33.2233 63.9928 33.7794C63.9928 34.1925 64.2967 34.5024 65.4762 34.7943L65.6162 34.8279C67.9251 35.3546 68.7757 36.1229 68.8168 37.7219L68.8181 37.8374L61.8779 33.7794L61.8782 33.8054L61.8333 33.7794C61.8333 32.0424 62.9829 30.9715 65.2128 30.9215ZM61.8782 33.8054L61.879 33.8823C61.9088 35.248 62.5474 36.3338 64.9013 36.8298L65.0467 36.8624C66.3662 37.1653 66.6439 37.4192 66.6439 37.9101C66.6439 38.4026 66.346 38.7362 65.3333 38.7362C64.112 38.7203 62.9056 38.3708 61.8333 37.7194V40.0231L61.9219 40.0691C62.6406 40.438 63.5877 40.8334 65.3035 40.8334L65.4728 40.8315C67.866 40.7782 68.8333 39.5855 68.8333 37.8465L68.8181 37.8374L68.8184 37.8465L61.8782 33.8054ZM74.2812 30.9214L74.4552 30.9197C75.4846 30.8902 76.5002 31.0798 77.4504 31.476L77.6685 31.571V33.7953C76.6242 33.3187 75.5156 32.985 74.391 32.985C73.4591 32.985 72.9611 33.2233 72.9611 33.7794C72.9611 34.193 73.2897 34.5033 74.5665 34.7955L74.7123 34.8279C77.2669 35.3681 78.1666 36.1625 78.1666 37.8465C78.1666 39.6259 77.0901 40.8175 74.3267 40.8334C72.4729 40.8334 71.4509 40.4368 70.6752 40.0673L70.5833 40.0231V37.7194C71.74 38.3708 73.0414 38.7203 74.3589 38.7362C75.4514 38.7362 75.7727 38.4026 75.7727 37.9101C75.7727 37.4186 75.4724 37.1647 74.0447 36.8613L73.8929 36.8298C71.2902 36.3214 70.6315 35.1934 70.6315 33.7794C70.6315 32.0414 71.873 30.9703 74.2812 30.9214ZM14.2759 34.5352C14.1729 34.4053 13.9818 34.3764 13.8495 34.4774C13.8054 34.5063 13.7759 34.5496 13.7612 34.5929L11.1145 39.8026L11.0949 39.8564C11.0554 40.0017 11.1178 40.157 11.2616 40.2212C11.3057 40.2356 11.3498 40.25 11.4086 40.25H15.0993L15.1495 40.2465C15.249 40.2323 15.3409 40.1758 15.3787 40.0768C16.158 38.4605 15.6727 36.0072 14.2759 34.5352ZM100.497 35.19L98.2231 30.9167H95.0833V40.25H97.0785V33.1382L97.9137 35.0203L100.744 40.25H103.25V30.9167H101.255V36.9486L100.497 35.19ZM82.2499 30.9167V40.25H79.9166V30.9167H82.2499ZM47.142 38.2291V30.9167H44.9166V40.25H49.4614L50.1666 38.2291H47.142ZM43.1666 30.9167V32.9376H40.658V40.25H38.525V32.9376H36.1666V30.9167H43.1666ZM36.1666 40.25L32.9276 30.9167H30.0723L26.8333 40.25H29.3047L29.7653 38.6765L29.979 38.7361C31.0507 39.0145 32.1696 38.9946 33.2346 38.6765L33.6951 40.25H36.1666ZM56.8442 30.9167L60.0833 40.25H57.6118L57.1512 38.6765C56.0863 38.9946 54.9673 39.0145 53.8956 38.7361L53.6819 38.6765L53.2214 40.25H50.7499L53.989 30.9167H56.8442ZM93.3333 40.25L90.0942 30.9167H87.239L83.9999 40.25H86.4714L86.9319 38.6765L87.1456 38.7361C88.2173 39.0145 89.3363 38.9946 90.4012 38.6765L90.8618 40.25H93.3333ZM30.3025 36.8252L31.4999 32.7525L32.6973 36.8252L32.4977 36.8806C32.1651 36.9628 31.8325 36.9949 31.4999 36.9949C31.1008 36.9949 30.7017 36.9332 30.3025 36.8252ZM55.4166 32.7525L54.2192 36.8252C54.6183 36.9332 55.0175 36.9949 55.4166 36.9949C55.7492 36.9949 56.0818 36.9628 56.4144 36.8806L56.614 36.8252L55.4166 32.7525ZM87.4692 36.8252L88.6666 32.7525L89.864 36.8252L89.6644 36.8806C89.3318 36.9628 88.9992 36.9949 88.6666 36.9949C88.2675 36.9949 87.8683 36.9332 87.4692 36.8252Z" fill="#3B3A40"/>
</svg>
