<svg width="24" height="25" viewBox="0 0 24 25" fill="none" xmlns="http://www.w3.org/2000/svg">
<path d="M12.1503 24.0418C5.67242 24.0418 0.421387 18.7908 0.421387 12.3129C0.421387 5.83502 5.67242 0.583984 12.1503 0.583984C18.6282 0.583984 23.8792 5.83502 23.8792 12.3129C23.8722 18.7873 18.6247 24.0348 12.1503 24.0418ZM7.13853 15.5817C6.98723 15.5817 6.8371 15.6005 6.68932 15.6357L6.51338 15.6838L5.81668 16.8766C5.68943 17.0889 5.64856 17.3419 5.70254 17.5835C5.75651 17.825 5.9012 18.0366 6.10671 18.1745C6.31222 18.3124 6.56285 18.3661 6.80683 18.3245C7.0508 18.2829 7.26948 18.1492 7.41768 17.951L7.4904 17.8419L8.41698 16.2339C8.26681 16.033 8.07219 15.8696 7.84837 15.7565C7.62455 15.6434 7.37759 15.5836 7.1268 15.5817H7.13853ZM13.5707 8.39544C13.2057 8.73824 12.9638 9.19163 12.8822 9.68562C12.7514 10.3668 12.8767 11.0722 13.234 11.6666L16.7996 17.8431C16.9237 18.0519 17.1216 18.2065 17.3542 18.2764C17.5868 18.3464 17.8372 18.3265 18.0558 18.2207C18.2738 18.1132 18.4432 17.9274 18.5302 17.7004C18.6172 17.4734 18.6153 17.2219 18.525 16.9962L18.4675 16.879L17.5292 15.2475H18.9249C19.1693 15.2454 19.4039 15.1507 19.5812 14.9825C19.7585 14.8142 19.8654 14.585 19.8803 14.341C19.8952 14.097 19.817 13.8565 19.6614 13.6679C19.5059 13.4794 19.2846 13.3568 19.0422 13.3251L18.9249 13.3181H16.4149L13.8416 8.86108L13.573 8.39192L13.5707 8.39544ZM5.4179 13.3099C5.29186 13.3102 5.16713 13.3353 5.05083 13.3839C4.93453 13.4325 4.82896 13.5036 4.74017 13.593C4.65137 13.6825 4.5811 13.7885 4.53336 13.9052C4.48563 14.0218 4.46138 14.1468 4.462 14.2728C4.462 14.7584 4.82325 15.1689 5.3053 15.231L5.42259 15.2369H14.1958C14.2929 15.0419 14.3418 14.8265 14.3383 14.6087C14.3348 14.391 14.2791 14.1772 14.1759 13.9854C14.0881 13.8058 13.9572 13.6506 13.7949 13.5338C13.6327 13.4169 13.444 13.342 13.2458 13.3157L13.1039 13.3087H10.1118L14.2498 6.14349C14.3772 5.92137 14.4118 5.65791 14.3459 5.41043C14.2991 5.23676 14.2047 5.07961 14.0734 4.95666C13.9421 4.83372 13.7791 4.74985 13.6028 4.7145C13.4264 4.67916 13.2436 4.69373 13.0751 4.75659C12.9066 4.81944 12.7589 4.92809 12.6488 5.07029L12.5761 5.1782L12.1503 5.92181L11.7292 5.1782C11.6051 4.96912 11.407 4.81427 11.1742 4.74433C10.9413 4.67438 10.6907 4.69444 10.4719 4.80053C10.254 4.90849 10.0847 5.09455 9.99777 5.32167C9.91083 5.54879 9.9126 5.80032 10.0027 6.0262L10.0602 6.14349L11.0337 7.85591L7.88449 13.3099H5.4179Z" fill="white"/>
</svg>
