<svg width="22" height="21" viewBox="0 0 22 21" fill="none" xmlns="http://www.w3.org/2000/svg">
<path d="M11.6458 10.0232L15.4524 6.64918L3.15721 0.524114C2.34234 0.13388 1.57896 0.079111 0.909554 0.505857L11.6458 10.0232ZM16.1012 13.9735L20.0584 12.0006C20.8308 11.6172 21.2543 11.0741 21.2543 10.4716C21.2543 9.87032 20.8308 9.32604 20.0597 8.94266L16.4771 7.15922L12.4439 10.7329L16.1012 13.9735ZM0.247872 1.33539C0.165484 1.56017 0.119141 1.8112 0.119141 2.08619V18.8651C0.119141 19.2998 0.227276 19.6741 0.422948 19.9719L10.8464 10.7318L0.247872 1.33539ZM11.6458 11.4392L1.2803 20.628C1.47855 20.6953 1.69224 20.7307 1.91753 20.7307C2.31917 20.7307 2.73755 20.6257 3.16365 20.4157L15.0778 14.4858L11.6458 11.4392Z" fill="white"/>
</svg>
