<svg width="143" height="103" viewBox="0 0 143 103" fill="none" xmlns="http://www.w3.org/2000/svg">
<path d="M136.503 6.35928C135.07 8.07528 133.658 9.77108 132.225 11.4871C131.256 11.8707 130.268 12.2542 129.299 12.6378C128.976 12.4763 128.593 12.1129 128.331 12.1735C122.156 13.7683 116.527 16.5341 111.301 20.168C110.151 20.5717 109 20.9553 107.83 21.3591C107.992 20.5516 108.173 19.744 108.335 18.9365H108.314C112.41 17.0388 116.507 15.1209 120.603 13.2233C124.739 11.265 128.835 9.26638 132.992 7.3485C134.081 6.86399 135.332 6.68229 136.503 6.35928Z" fill="#433129"/>
<path d="M136.503 6.35927C135.332 6.68228 134.081 6.86398 132.992 7.36868C128.835 9.26637 124.719 11.265 120.603 13.2434C119.654 13.2636 118.686 13.2838 117.737 13.2838C124.295 9.40769 130.853 5.53156 137.39 1.67562C138.642 1.45355 139.348 1.8775 138.682 3.14936C138.097 4.30008 137.229 5.2893 136.503 6.35927Z" fill="#3E3835"/>
<path d="M129.299 12.6378C130.268 12.2542 131.257 11.8706 132.225 11.4871C131.236 13.2232 130.268 14.9796 129.279 16.7158C128.855 16.9177 128.432 17.1397 127.988 17.3416C127.463 17.5233 126.959 17.6848 126.434 17.8665C125.466 18.0482 124.497 18.2299 123.528 18.4116C123.528 18.0684 123.528 17.705 123.549 17.3618C124.961 16.7158 126.374 16.0496 127.786 15.4036C127.705 15.1815 127.625 14.9796 127.544 14.7575C124.86 15.6054 122.177 16.4533 119.493 17.3012C120.058 16.7158 120.502 15.8679 121.188 15.6054C123.851 14.5355 126.575 13.627 129.299 12.6378Z" fill="#412D24"/>
<path d="M137.391 1.67563C130.833 5.55176 124.275 9.42788 117.737 13.2838C115.821 14.2529 113.884 15.2017 111.967 16.1707C111.583 15.989 111.2 15.8073 110.837 15.6256C118.262 11.5275 125.667 7.40907 133.113 3.35125C134.445 2.62447 135.958 2.22071 137.391 1.67563Z" fill="#CFE1DF"/>
<path d="M110.816 15.6256C111.2 15.8073 111.583 15.989 111.946 16.1707C110.736 17.0994 109.525 18.028 108.294 18.9567H108.314C104.279 20.8947 100.223 22.8328 96.1875 24.7709C95.9857 24.4075 95.7638 24.0441 95.562 23.6807C100.243 21.1774 104.904 18.674 109.586 16.1909C109.848 15.989 110.11 15.7871 110.373 15.5853C110.534 15.5651 110.675 15.5853 110.816 15.6256Z" fill="#F3E4C3"/>
<path d="M127.988 17.3416C127.281 18.4924 126.575 19.6431 125.869 20.7938C125.647 20.8544 125.405 20.9149 125.183 20.9957C120.784 22.4896 116.365 23.9835 111.946 25.4775C111.301 25.6794 110.635 25.9014 109.747 26.1841C110.655 26.8301 111.26 27.254 111.845 27.678C109.767 28.6672 107.669 29.6564 105.59 30.6456C104.581 30.4639 103.573 30.2823 102.564 30.0804C102.584 29.8785 102.584 29.6968 102.604 29.4949C103.754 28.8893 104.924 28.324 106.034 27.6376C106.196 27.5367 106.034 26.9512 106.014 26.5676C104.884 26.3052 103.734 26.0226 102.543 25.7399C102.765 25.4371 102.967 25.1545 103.169 24.8516C103.573 24.8516 103.976 24.8718 104.38 24.8718C106.68 24.4883 109 24.0845 111.301 23.7009C113.238 23.1155 115.195 22.53 117.132 21.9647C118.666 21.4802 120.26 21.137 121.712 20.491C123.347 19.7642 124.86 18.7548 126.434 17.8463C126.959 17.6848 127.463 17.5233 127.988 17.3416Z" fill="#7E4D28"/>
<path d="M122.298 24.8516C121.349 26.0831 120.401 27.3348 119.453 28.5662C119.311 28.5057 119.17 28.4653 119.009 28.4653C117.193 28.8287 115.397 29.1921 113.581 29.5757C113.076 29.5958 112.552 29.5958 112.047 29.616C111.866 29.3738 111.503 28.9296 111.543 28.8893C111.987 28.4451 112.511 28.0414 112.996 27.6376C116.103 26.7089 119.19 25.7803 122.298 24.8516Z" fill="#EFD9A4"/>
<path d="M111.946 25.4775C116.365 23.9835 120.764 22.4896 125.183 20.9957C124.719 21.6821 124.255 22.3685 123.791 23.0347C120.986 23.8826 118.201 24.8314 115.356 25.538C114.287 25.8207 113.076 25.5178 111.946 25.4775Z" fill="#EFCC9A"/>
<path d="M111.946 25.4774C113.096 25.5178 114.287 25.8206 115.356 25.5582C118.201 24.8516 120.986 23.9028 123.791 23.0549C123.286 23.6605 122.802 24.2662 122.297 24.8718C119.21 25.8005 116.103 26.7291 113.016 27.6578C112.632 27.6578 112.249 27.678 111.866 27.678C111.26 27.254 110.655 26.8301 109.767 26.184C110.635 25.8812 111.301 25.6793 111.946 25.4774Z" fill="#916B39"/>
<path d="M102.604 29.4747C102.584 29.6766 102.584 29.8583 102.564 30.0602C101.212 30.4437 99.86 30.8475 98.5282 31.2311C97.9027 30.4236 97.2974 29.6362 96.4499 28.5259C95.1384 28.6268 93.3627 28.7681 91.5669 28.9094C91.9503 28.324 92.3538 27.7587 92.7372 27.1733C93.8873 26.3657 95.0577 25.5582 96.2078 24.7507C100.243 22.8126 104.299 20.8746 108.335 18.9365C108.173 19.744 107.992 20.5515 107.83 21.3591C106.277 22.53 104.743 23.6807 103.189 24.8516C102.988 25.1343 102.766 25.4371 102.564 25.7399C103.774 26.0225 104.904 26.3052 106.034 26.5676C103.996 27.2338 101.938 27.9202 99.9003 28.5864C99.9609 28.8489 100.042 29.1113 100.102 29.3738C100.929 29.4141 101.777 29.4545 102.604 29.4747Z" fill="#603929"/>
<path d="M103.189 24.8718C104.743 23.7009 106.276 22.5502 107.83 21.3793C108.98 20.9755 110.13 20.5919 111.301 20.1882C112.854 19.8046 114.408 19.421 115.962 19.0374C118.484 18.4924 121.026 17.9271 123.549 17.382C123.549 17.7252 123.549 18.0886 123.528 18.4318C121.39 19.2393 119.251 20.067 117.132 20.8746C115.175 21.4197 113.238 21.9647 111.281 22.5098C108.98 23.2972 106.68 24.1047 104.38 24.892C103.996 24.8718 103.593 24.8718 103.189 24.8718Z" fill="#6D3E23"/>
<path d="M115.962 19.0374C114.408 19.421 112.854 19.8046 111.301 20.1882C116.527 16.5543 122.156 13.7885 128.331 12.1937C128.593 12.1331 128.977 12.4965 129.299 12.658C126.596 13.627 123.851 14.5557 121.188 15.6458C120.502 15.9285 120.058 16.7562 119.493 17.3416C118.302 17.8867 117.132 18.4722 115.962 19.0374Z" fill="#603929"/>
<path d="M108.314 18.9365C109.525 18.0078 110.736 17.0792 111.967 16.1505C113.884 15.1815 115.821 14.2326 117.737 13.2636C118.686 13.2434 119.654 13.2232 120.603 13.2232C116.507 15.1411 112.411 17.0388 108.314 18.9365Z" fill="#5B4638"/>
<path d="M115.962 19.0374C117.132 18.4722 118.322 17.9069 119.493 17.3416C122.176 16.4937 124.86 15.6458 127.544 14.7979C127.624 15.02 127.705 15.2219 127.786 15.4439C126.373 16.09 124.961 16.736 123.549 17.4022C121.006 17.9271 118.484 18.4722 115.962 19.0374Z" fill="#A37857"/>
<path d="M117.132 20.8544C119.271 20.0468 121.41 19.2191 123.528 18.4116C124.497 18.2299 125.465 18.0482 126.434 17.8665C124.86 18.7548 123.367 19.7642 121.712 20.5112C120.26 21.1572 118.666 21.5004 117.132 21.9849C116.728 21.9243 116.345 21.8638 115.74 21.783C116.365 21.3591 116.749 21.1168 117.132 20.8544Z" fill="#E0AF82"/>
<path d="M96.2076 24.7507C95.0575 25.5582 93.8871 26.3658 92.737 27.1733C90.5982 28.4855 88.4391 29.8179 86.3003 31.1302C81.4375 33.5325 77.301 36.7223 74.799 41.7088C74.1936 42.6576 73.6488 43.667 72.983 44.5755C72.2566 45.5849 71.4293 46.5135 70.6423 47.4826C71.631 44.5957 72.6198 41.6886 73.6085 38.8017C75.5657 36.8838 77.5431 34.9861 79.4802 33.0682C80.2671 32.3011 80.9935 31.4935 81.7401 30.686C83.4552 29.6968 85.1905 28.7076 86.9056 27.7184C88.0558 27.2137 89.2059 26.709 90.3359 26.2042C92.0913 25.3563 93.8266 24.4883 95.5821 23.6404C95.7839 24.0239 95.9856 24.3873 96.2076 24.7507Z" fill="#F8F4DB"/>
<path d="M103.916 46.9375C102.685 49.6225 101.474 52.3075 100.243 54.9925C98.508 57.3344 96.7728 59.6964 95.0576 62.0382C91.9503 65.9143 88.8631 69.7703 85.7557 73.6464C83.9397 75.6047 81.9623 77.4418 80.4086 79.5817C79.8839 80.3287 80.4489 81.8428 80.5095 83.0137C80.4893 83.256 80.4691 83.4982 80.4489 83.7405C79.3997 83.256 78.3504 82.7715 77.281 82.2869C77.624 80.4498 77.9469 78.5925 78.2899 76.7554C78.8549 76.0892 79.44 75.423 80.005 74.7769C81.6394 73.384 83.5765 72.2332 84.8477 70.5576C87.4708 67.1256 89.7509 63.4312 92.1722 59.8377C93.9277 57.3142 95.7033 54.7907 97.4588 52.2671C98.044 52.0047 98.6089 51.7423 99.1941 51.4798L102.564 45.8271C103.008 44.9994 103.331 44.0708 103.936 43.3642C104.239 43.021 105.046 43.1017 105.611 42.9806C105.066 44.2928 104.481 45.6051 103.916 46.9375Z" fill="#EFEDCB"/>
<path d="M98.5281 31.2513C99.88 30.8677 101.232 30.4639 102.564 30.0804C103.573 30.2621 104.581 30.4437 105.59 30.6456C107.749 30.3024 109.888 29.9592 112.047 29.616C112.552 29.5958 113.076 29.5958 113.581 29.5757C111.482 30.5245 109.384 31.4733 107.305 32.4222C104.723 31.7762 102.039 32.7856 102.362 34.4208C102.967 34.6025 103.613 34.7842 104.259 34.9659C104.238 35.1072 104.218 35.2283 104.198 35.3697C102.705 35.3697 101.212 35.3697 99.9607 35.3697C99.8396 36.0964 99.7791 36.5809 99.6984 37.0453C98.9316 37.0453 98.1649 37.0251 97.3779 37.0251C97.7613 35.1072 98.1447 33.1691 98.5281 31.2513Z" fill="#7B4D32"/>
<path d="M112.067 29.5959C109.908 29.9391 107.77 30.2823 105.611 30.6255C107.689 29.6362 109.787 28.647 111.866 27.6578C112.249 27.6578 112.632 27.6376 113.016 27.6376C112.511 28.0414 112.007 28.4249 111.563 28.8893C111.523 28.9095 111.886 29.3536 112.067 29.5959Z" fill="#DEAA75"/>
<path d="M102.604 29.4747C101.777 29.4343 100.929 29.394 100.102 29.3536C100.041 29.0911 99.9607 28.8287 99.9001 28.5662C101.938 27.9 103.996 27.2136 106.034 26.5474C106.054 26.9108 106.196 27.5165 106.054 27.6174C104.924 28.3038 103.754 28.8691 102.604 29.4747Z" fill="#7B4D32"/>
<path d="M117.132 20.8544C116.749 21.1168 116.365 21.3591 115.76 21.7628C116.345 21.8436 116.749 21.9042 117.152 21.9647C115.215 22.5502 113.258 23.1356 111.321 23.7009C111.321 23.2971 111.301 22.8934 111.301 22.4896C113.238 21.9647 115.175 21.3995 117.132 20.8544Z" fill="#C39366"/>
<path d="M111.28 22.5098C111.28 22.9136 111.301 23.3173 111.301 23.7211C109 24.1047 106.68 24.5084 104.38 24.892C106.68 24.0845 108.98 23.2971 111.28 22.5098Z" fill="#9E6242"/>
<path d="M107.305 32.4222C109.404 31.4733 111.502 30.5245 113.581 29.5757C115.397 29.2123 117.192 28.8489 119.008 28.4653C118.201 29.5757 117.435 30.7062 116.567 31.756C115.679 32.8259 114.69 33.795 113.742 34.8044C113.661 34.9659 113.601 35.1476 113.581 35.3293C111.785 37.227 109.989 39.1247 108.193 41.0425C107.326 41.6885 106.478 42.3346 105.61 42.9806C105.025 43.1017 104.238 43.0008 103.936 43.3642C103.33 44.0506 103.008 44.9792 102.564 45.8271C101.978 45.6454 101.393 45.4435 100.808 45.2619C100.243 44.8581 99.658 44.4543 99.093 44.0304C100.122 44.1717 101.171 44.3332 102.2 44.4745C102.221 44.3534 102.261 44.2323 102.281 44.1111C101.555 43.667 100.828 43.243 99.7387 42.5768C100.889 42.4759 101.615 42.3951 102.604 42.2942C101.857 41.7087 101.393 41.3453 100.808 40.881C102.503 40.6993 103.916 40.558 105.328 40.3965C105.308 40.1946 105.288 39.9726 105.288 39.7707C104.44 39.5486 103.593 39.3467 102.846 39.1448C104.48 38.6199 106.155 38.0749 107.81 37.55C107.769 37.4087 107.729 37.2875 107.689 37.1462C106.599 37.0856 105.53 37.0453 103.714 36.9443C106.559 35.6927 108.718 34.7438 110.897 33.795C109.828 33.6335 108.819 33.9969 107.83 33.9363C107.043 33.9161 105.953 33.472 107.305 32.4222Z" fill="#F0DFB4"/>
<path d="M98.5282 31.2513C98.1448 33.1893 97.7615 35.1072 97.3983 37.0453C97.3781 37.4289 97.3781 37.8326 97.3579 38.2162C94.9164 35.188 94.2303 35.0467 90.7194 36.6819C90.2755 36.8838 89.6096 36.6213 89.1052 36.7425C87.0471 37.2472 84.8275 37.449 83.0115 38.4383C81.0139 39.5284 79.3997 41.3655 77.624 42.8797C78.7943 40.7599 79.9445 38.6401 81.1148 36.5204C82.6685 35.1678 84.2222 33.795 85.7758 32.4424C87.7129 31.2715 89.6298 30.1207 91.5669 28.9498C93.3627 28.8085 95.1585 28.6672 96.4499 28.5663C97.2974 29.6362 97.9027 30.4438 98.5282 31.2513Z" fill="#60463E"/>
<path d="M91.5466 28.9296C89.6096 30.1005 87.6927 31.2513 85.7556 32.4222C85.9372 31.9982 86.0986 31.5743 86.2802 31.1503C88.4191 29.8381 90.5781 28.5057 92.717 27.1935C92.3336 27.7587 91.93 28.3442 91.5466 28.9296Z" fill="#795744"/>
<path d="M86.2801 31.1503C86.0985 31.5743 85.9371 31.9982 85.7555 32.4222C84.2018 33.7748 82.6481 35.1476 81.0944 36.5002C78.1687 38.3979 76.4939 41.1031 75.1622 44.3332C72.7207 50.3291 69.9361 56.2038 67.0507 62.018C66.5261 63.088 64.8917 63.6129 63.7617 64.4002C64.3065 63.411 64.8311 62.4016 65.3759 61.4124C70.0572 55.5982 72.2969 48.6131 74.7586 41.7289C77.2808 36.7424 81.4173 33.5527 86.2801 31.1503Z" fill="#966946"/>
<path d="M70.0774 48.1084C70.259 47.9065 70.4407 47.7046 70.6223 47.5028C71.4092 46.5337 72.2365 45.6051 72.9629 44.5957C73.6287 43.6872 74.1735 42.698 74.7789 41.7289C72.3172 48.6131 70.0775 55.5982 65.3962 61.4124C64.9725 61.0288 64.5487 60.6251 64.125 60.2415C64.7707 58.9293 65.4366 57.5968 66.0822 56.2846C66.6472 55.3156 67.2122 54.3465 67.7772 53.3573C68.1606 52.57 68.5439 51.8028 68.9475 51.0155C69.1089 50.6319 69.2703 50.2282 69.4318 49.8446C69.6537 49.2591 69.8555 48.6737 70.0774 48.1084Z" fill="#FCF2CA"/>
<path d="M73.5884 38.8218C73.3866 38.8017 73.1848 38.8017 72.9629 38.7815C74.5166 36.8636 76.0703 34.9255 77.624 33.0077C78.9961 32.2405 80.348 31.4734 81.72 30.7062C80.9735 31.4935 80.2269 32.3011 79.4601 33.0884C77.5231 35.0063 75.5456 36.904 73.5884 38.8218Z" fill="#8AB4B8"/>
<path d="M41.1626 86.3851C39.387 86.1832 37.6113 85.9612 35.8357 85.7593C37.3894 85.5978 38.9229 85.4363 40.4766 85.2748C41.6065 85.3152 42.7365 85.3353 43.8665 85.3757C47.7002 86.8898 51.4129 89.0298 55.4081 89.7767C62.2686 91.0688 69.2905 91.4927 76.2316 92.2801C77.2405 92.4012 78.8346 91.7754 78.1687 93.8951C77.7853 93.9355 77.4019 93.9759 77.0186 94.0163C72.5391 93.774 68.0193 93.7336 63.56 93.2491C59.6253 92.805 55.6301 92.1993 51.8569 91.0284C48.1643 89.8777 44.7139 87.9598 41.1626 86.3851Z" fill="#E47A33"/>
<path d="M99.7992 91.6745C98.972 93.2088 98.1648 94.7229 97.3376 96.2572C94.0284 98.8614 90.5578 101.123 86.0985 100.921C85.5739 100.9 85.0493 100.577 84.5247 100.416C84.9282 100.032 85.3116 99.669 85.7151 99.2854C86.1187 99.1239 86.5223 98.9624 86.9258 98.8009C88.7822 98.2154 90.6184 97.6098 93.1204 96.8022C91.6878 95.914 91.0623 95.5304 90.4569 95.1266C90.7596 94.1778 91.0824 93.2491 91.3851 92.3003C92.959 92.7242 94.553 93.1482 96.1269 93.5721C96.1874 93.3703 96.2681 93.1482 96.3287 92.9463C94.6943 92.3003 93.0599 91.6745 91.4255 91.0284C91.4658 90.8871 91.5062 90.7458 91.5667 90.6247C93.6854 91.0486 95.7839 91.4726 97.9025 91.8965C97.9631 91.6139 98.0034 91.3313 98.064 91.0486C95.7032 90.5035 93.3424 89.9585 90.9816 89.4134C91.9703 89.2317 92.9388 89.05 93.9275 88.8885C94.896 89.2317 95.8444 89.6355 96.8129 89.8777C97.9631 90.1805 99.1334 90.342 100.304 90.5641C100.122 90.9073 99.9607 91.2909 99.7992 91.6745Z" fill="#F2EDD1"/>
<path d="M85.6951 99.2652C85.2915 99.6487 84.9081 100.012 84.5046 100.396C82.2043 99.144 79.9646 97.8116 77.624 96.6609C75.9694 95.8534 74.2139 94.7228 72.4988 94.6825C65.6787 94.5411 58.8586 94.5209 52.321 92.2599C48.0231 90.766 43.8867 88.9086 39.8108 86.587C40.2547 86.5062 40.6986 86.4457 41.1627 86.3649C44.714 87.9396 48.1644 89.8575 51.8569 91.0082C55.6302 92.1791 59.6254 92.7848 63.56 93.2289C68.0193 93.7336 72.5392 93.774 77.0186 93.9961C78.9154 97.4079 81.7806 99.2046 85.6951 99.2652Z" fill="#FEDC8C"/>
<path d="M27.7848 86.4861C28.3095 86.2842 28.8341 86.0823 29.3587 85.8804C31.1142 85.8602 32.8696 85.8199 34.6251 85.7997C31.9616 87.2734 29.2982 88.727 26.1908 90.4228C26.7961 88.949 27.2804 87.7176 27.7848 86.4861Z" fill="#963720"/>
<path d="M34.625 85.7997C32.8696 85.8199 31.1141 85.8603 29.3586 85.8805C30.7711 84.9316 32.1634 83.9828 33.5758 83.0339C33.939 82.9935 34.3022 82.9734 34.6654 82.933C35.5129 83.5184 36.32 84.2452 37.2482 84.6288C38.257 85.0326 39.387 85.0729 40.4766 85.2748C38.9229 85.4363 37.3894 85.5978 35.8357 85.7593C35.4322 85.7795 35.0286 85.7795 34.625 85.7997Z" fill="#E37129"/>
<path d="M77.281 82.287C78.3302 82.7715 79.3795 83.256 80.4489 83.7405C81.4376 84.4673 82.4061 85.194 83.3948 85.941C83.415 86.688 83.415 87.4349 83.4352 88.1819C81.8815 87.6166 80.348 87.0312 78.7943 86.4659C77.3617 85.8804 75.9291 84.8307 74.4763 84.7903C67.3938 84.6086 60.3114 84.7095 53.2492 84.7095C50.7472 83.7405 48.2249 82.7917 45.7229 81.8226C47.0748 81.8024 48.4267 81.8024 49.7786 81.7822C50.6261 81.9841 51.4736 82.3677 52.3009 82.3273C58.2331 82.1456 64.1856 81.8832 70.1178 81.5602C70.3196 81.54 70.4609 80.6113 70.6223 80.1066C72.3576 80.6921 74.113 81.2775 75.8483 81.8428C76.3326 82.0043 76.8169 82.1456 77.281 82.287Z" fill="#4A8D9F"/>
<path d="M77.2809 82.2869C76.7966 82.1456 76.3326 81.9841 75.8483 81.8428C77.1195 80.1268 76.1106 79.1578 74.678 78.3301C75.1622 77.4822 75.929 76.6746 76.0904 75.7864C76.837 71.4661 80.1462 69.0233 82.8903 66.1364C82.8903 67.267 82.8702 68.3773 82.8702 69.5078C82.4666 69.9318 82.0832 70.3557 81.6797 70.7797C77.8862 71.2642 78.6934 74.353 78.2898 76.7554C77.967 78.5925 77.6239 80.4498 77.2809 82.2869Z" fill="#587982"/>
<path d="M83.3947 85.941C82.406 85.2142 81.4374 84.4875 80.4487 83.7405C80.4689 83.4982 80.4891 83.256 80.5093 83.0137C85.6142 86.4457 91.3851 87.1321 97.3375 87.0917C100.405 87.0715 101.05 87.8993 100.283 90.5237C99.1132 90.3017 97.9429 90.1402 96.7927 89.8373C95.804 89.5749 94.8557 89.1913 93.9073 88.8481C91.5667 88.2627 89.2059 87.6974 86.8653 87.1119C85.7151 86.7082 84.5448 86.3246 83.3947 85.941Z" fill="#E7E3BA"/>
<path d="M81.6796 70.7797C82.0832 70.3557 82.4666 69.9318 82.8701 69.5078C83.6167 68.9829 84.5449 68.6195 85.0897 67.9331C87.1075 65.4298 89.0244 62.8054 90.9614 60.2415C91.365 60.1001 91.7685 59.9588 92.1721 59.8175C89.7508 63.411 87.4707 67.1054 84.8476 70.5374C83.5764 72.1928 81.6393 73.3638 80.0049 74.7567C80.5699 73.4445 81.1348 72.1121 81.6796 70.7797Z" fill="#CCBF99"/>
<path d="M92.1721 59.8377C91.7685 59.979 91.365 60.1203 90.9614 60.2617C91.143 59.6156 91.2036 58.9292 91.5264 58.3438C92.2326 57.0315 93.0397 55.7799 93.8065 54.5282C94.5934 52.9535 95.4005 51.399 96.1875 49.8244C96.591 50.0666 96.9744 50.2887 97.378 50.531C97.3981 51.1164 97.4385 51.7019 97.4587 52.2671C95.7032 54.7907 93.9477 57.3142 92.1721 59.8377Z" fill="#A19581"/>
<path d="M97.4789 52.2671C97.4587 51.6817 97.4184 51.0962 97.3982 50.531C97.257 50.0868 97.1157 49.6225 97.1964 49.8647C97.721 48.9765 97.943 48.4516 98.286 48.0276C99.0931 47.0788 99.981 46.1905 100.828 45.2618C101.414 45.4435 101.999 45.6454 102.584 45.8271L99.2142 51.4798C98.629 51.7221 98.0439 52.0047 97.4789 52.2671Z" fill="#CCBF99"/>
<path d="M81.6797 70.7797C81.1147 72.1121 80.5699 73.4445 80.0049 74.7568C79.4399 75.423 78.8548 76.069 78.2898 76.7352C78.6934 74.353 77.8862 71.2642 81.6797 70.7797Z" fill="#64787D"/>
<path d="M107.305 32.4222C105.954 33.472 107.043 33.9161 107.85 33.9767C108.839 34.0372 109.848 33.6739 110.917 33.8354C108.758 34.7842 106.579 35.7331 103.734 36.9847C105.53 37.0655 106.619 37.126 107.709 37.1866C107.749 37.3279 107.79 37.449 107.83 37.5904C106.176 38.1354 104.501 38.6603 102.866 39.1852C103.613 39.3871 104.46 39.589 105.308 39.8111C105.328 40.0129 105.348 40.235 105.348 40.4369C103.936 40.5782 102.523 40.7397 100.828 40.9214C101.414 41.3857 101.878 41.7491 102.624 42.3346C101.636 42.4355 100.909 42.4961 99.759 42.6172C100.869 43.2834 101.595 43.7074 102.301 44.1515C102.281 44.2726 102.241 44.3938 102.221 44.5149C101.192 44.3736 100.142 44.2121 99.1133 44.0708C99.3151 41.7491 99.5168 39.4275 99.7186 37.1058C99.7993 36.6213 99.88 36.1368 99.9809 35.4302C101.232 35.4302 102.725 35.4302 104.218 35.4302C104.238 35.2889 104.259 35.1678 104.279 35.0265C103.633 34.8448 102.967 34.6429 102.382 34.4814C102.039 32.7856 104.723 31.7762 107.305 32.4222Z" fill="#9A6A3F"/>
<path d="M99.6985 37.0655C99.4968 39.3871 99.295 41.7087 99.0932 44.0304C99.6582 44.4341 100.243 44.8379 100.808 45.2619C99.9609 46.1703 99.073 47.0788 98.2659 48.0276C97.9229 48.4314 97.7009 48.9563 97.1763 49.8648C97.1158 49.6427 97.2369 50.0868 97.3781 50.531C96.9745 50.2887 96.5912 50.0666 96.1876 49.8244C95.9858 49.0572 95.7841 48.2901 95.5823 47.5229C95.9657 45.5849 96.349 43.6468 96.7324 41.7087C97.1158 41.6886 97.479 41.6482 98.165 41.6078C97.5395 41.0627 97.1158 40.6791 96.6921 40.2956C96.9745 40.235 97.2772 40.1744 97.5597 40.1139C97.479 39.488 97.4185 38.8622 97.3377 38.2364C97.3579 37.8528 97.3579 37.449 97.3781 37.0655C98.165 37.0453 98.9318 37.0453 99.6985 37.0655Z" fill="#87674F"/>
<path d="M97.3377 38.2162C97.4184 38.842 97.479 39.4679 97.5597 40.0937C97.2772 40.1543 96.9745 40.2148 96.692 40.2754C97.1158 40.659 97.5597 41.0425 98.165 41.5876C97.479 41.628 97.1157 41.6684 96.7324 41.6886C95.4006 41.5069 94.0487 41.3252 92.717 41.1233C90.4773 41.0829 87.9752 42.7383 86.0583 40.1139C85.9171 39.9322 84.8275 40.3359 84.2625 40.6186C83.4957 41.0022 82.8702 41.8097 82.0833 41.9914C78.532 42.7787 77.6644 46.2511 76.0501 48.5929C73.6692 52.0855 72.3778 56.3452 70.6223 60.2819C70.6223 59.6964 70.6223 59.1109 70.6223 58.5457C72.9428 53.3169 75.2834 48.0882 77.6038 42.8595C79.3795 41.3454 80.9937 39.5284 82.9913 38.4181C84.7871 37.4289 87.0269 37.227 89.085 36.7223C89.6096 36.6011 90.2553 36.8636 90.6992 36.6617C94.2101 35.0466 94.8962 35.188 97.3377 38.2162Z" fill="#5A4A4A"/>
<path d="M77.6241 42.8595C75.3036 48.0882 72.963 53.3169 70.6425 58.5457C67.9387 62.2199 65.2147 65.9144 62.5109 69.5886C61.8854 69.3463 61.2801 69.0839 60.6545 68.8416C61.7038 67.3477 62.753 65.874 63.7821 64.38C64.9121 63.5927 66.5263 63.0678 67.0711 61.9978C69.9565 56.1837 72.741 50.3089 75.1825 44.313C76.4941 41.0829 78.189 38.3777 81.1148 36.48C79.9445 38.62 78.7944 40.7397 77.6241 42.8595Z" fill="#795744"/>
<path d="M63.8022 64.4002C62.7529 65.8942 61.7037 67.3679 60.6746 68.8618C59.1613 70.0529 57.6681 71.2642 56.1548 72.4553C56.3162 71.6882 56.4776 70.9008 56.6391 70.1337C56.6592 69.952 56.6592 69.7501 56.6189 69.5684C59.1209 66.4594 61.623 63.3504 64.1452 60.2213C64.5689 60.6049 64.9927 61.0086 65.4164 61.3922C64.8716 62.4016 64.3268 63.411 63.8022 64.4002Z" fill="#F7F2DB"/>
<path d="M56.6391 70.1337C56.4777 70.9008 56.3162 71.6882 56.1548 72.4553C55.953 72.637 55.7714 72.8187 55.5697 73.0004C51.7561 73.8079 47.9425 74.5952 44.149 75.4633C43.241 75.6652 42.3936 76.1295 41.5259 76.4727C41.1224 77.0178 40.7188 77.5831 40.3153 78.1282C39.2257 78.9559 38.1159 79.7634 37.0263 80.5911C36.199 80.1672 35.3717 79.7432 34.1812 79.1376C34.1812 79.0165 34.1207 78.3906 34.0803 77.7446C35.4322 76.392 36.7841 75.0394 38.1361 73.6666C38.9028 73.3032 39.6897 72.9398 40.4565 72.5562C42.3936 72.4957 44.3306 72.4553 46.2677 72.3947C48.2653 72.2938 50.2629 72.1727 52.2605 72.0717C53.1887 71.6478 54.1169 71.2238 55.045 70.7999C55.5697 70.5778 56.0943 70.3557 56.6391 70.1337Z" fill="#FCFCF4"/>
<path d="M25.3434 64.3801C18.2408 63.734 11.6023 62.0584 6.77979 56.224C6.77979 55.7799 6.77979 55.3559 6.77979 54.9118C9.70556 56.6884 12.6313 58.4447 15.5369 60.2213C19.0075 61.2105 22.4983 62.1795 25.9689 63.1688V63.1486C25.7671 63.5725 25.5451 63.9763 25.3434 64.3801Z" fill="#FBF9E5"/>
<path d="M25.3433 64.3801C25.545 63.9763 25.767 63.5725 25.9688 63.1688C31.8809 64.6223 36.3603 68.2764 40.4362 72.5563C39.6695 72.9196 38.8826 73.283 38.1158 73.6666C35.2909 71.3248 32.5266 68.9224 29.621 66.7017C28.3498 65.7327 26.7759 65.1472 25.3433 64.3801Z" fill="#F6EFC1"/>
<path d="M6.77972 54.932C6.77972 55.3761 6.77972 55.8001 6.77972 56.2442C6.39634 56.0424 6.01296 55.8607 5.62958 55.6588C3.95483 53.1756 3.18807 50.7732 6.23492 48.7141C7.18327 48.7141 8.13163 48.7141 9.07998 48.7141C12.6918 50.208 16.3238 51.6615 19.9155 53.216C21.0252 53.7005 22.0341 54.4475 23.1035 55.0733C22.8412 55.1137 22.5587 55.1541 22.2964 55.2146C21.4288 54.932 20.5611 54.6494 19.6935 54.3465C16.4651 53.0343 13.2971 51.5202 9.98799 50.5108C8.95892 50.1878 7.52629 51.177 6.27527 51.5606C6.39634 52.6709 6.57794 53.8015 6.77972 54.932Z" fill="#EFD696"/>
<path d="M34.0602 77.7244C34.1005 78.3704 34.161 78.9963 34.161 79.1174C35.3515 79.7231 36.1788 80.147 37.0061 80.571C37.3895 81.1564 37.793 81.7621 38.1764 82.3475C37.5711 82.3475 36.9456 82.3475 36.3402 82.3475C35.7753 82.5494 35.2305 82.7311 34.6655 82.933C34.3023 82.9733 33.9391 82.9935 33.5759 83.0339C32.3652 81.1564 32.6477 79.3799 34.0602 77.7244Z" fill="#F0DCA7"/>
<path d="M85.695 99.2652C81.7805 99.1845 78.8951 97.4079 77.0186 94.0163C77.4019 93.9759 77.7853 93.9355 78.1687 93.8952C79.3592 93.3299 80.5698 92.7444 81.7603 92.1792C82.1235 92.159 82.4867 92.159 82.8499 92.1388C84.3834 92.7848 85.9371 93.4308 87.4706 94.0769C87.7733 94.4604 88.076 94.8238 88.3585 95.2074C87.8742 96.3985 87.3899 97.5896 86.9258 98.8009C86.5021 98.9422 86.0986 99.1037 85.695 99.2652Z" fill="#9F4123"/>
<path d="M81.7402 92.159C80.5497 92.7444 79.339 93.3097 78.1486 93.8952C78.8144 91.7754 77.2204 92.4012 76.2115 92.2801C69.2502 91.4928 62.2485 91.0688 55.388 89.7768C51.413 89.0298 47.7003 86.8899 43.8463 85.3757L43.9472 85.2344C48.2249 86.6072 52.4219 88.5453 56.8206 89.1913C64.0846 90.2613 71.4697 90.443 78.8144 91.089C79.8233 91.1899 80.7717 91.7956 81.7402 92.159Z" fill="#B35D39"/>
<path d="M34.6654 82.933C35.2304 82.7311 35.7752 82.5494 36.3402 82.3475C38.8826 83.3166 41.425 84.2654 43.9674 85.2344L43.8665 85.3758C42.7365 85.3354 41.6066 85.3152 40.4766 85.2748C39.4072 85.0729 38.2571 85.0124 37.2482 84.6288C36.32 84.2452 35.5331 83.5184 34.6654 82.933Z" fill="#B35D39"/>
<path d="M88.3384 95.2074C88.0357 94.8238 87.733 94.4604 87.4506 94.0769C87.5313 93.8548 87.5918 93.6125 87.6725 93.3905C87.39 91.8562 87.0874 90.342 86.8452 88.8077C86.7645 88.2627 86.8452 87.6772 86.8654 87.1119C89.206 87.6974 91.5668 88.2627 93.9075 88.8481C92.9187 89.0298 91.9502 89.2115 90.9615 89.373C90.6185 89.9585 90.114 90.5035 89.9728 91.1092C89.6499 92.6233 89.4885 94.1778 89.2666 95.7121C88.9841 95.5506 88.6612 95.3689 88.3384 95.2074Z" fill="#99A4A1"/>
<path d="M89.2866 95.7121C89.5086 94.1778 89.67 92.6233 89.9928 91.1092C90.1341 90.4833 90.6385 89.9383 90.9816 89.373C93.3424 89.9181 95.7032 90.4631 98.064 91.0082C98.0034 91.2909 97.9631 91.5735 97.9025 91.8561C95.7839 91.4322 93.6854 91.0082 91.5667 90.5843C91.5264 90.7256 91.486 90.8669 91.4255 90.988C93.0599 91.6341 94.6943 92.2599 96.3287 92.9059C96.2681 93.1078 96.1874 93.3299 96.1269 93.5317C94.553 93.1078 92.959 92.6838 91.3851 92.2599C91.0623 93.2087 90.7596 94.1576 90.4569 95.0862C90.0534 95.3285 89.67 95.5102 89.2866 95.7121Z" fill="#C0C4B4"/>
<path d="M89.2867 95.712C89.6701 95.5102 90.0535 95.3285 90.4369 95.1266C91.0624 95.5102 91.6879 95.8937 93.1003 96.8022C90.5983 97.6097 88.7419 98.1952 86.9058 98.8008C87.39 97.6097 87.8743 96.4186 88.3384 95.2073C88.6612 95.3688 88.9841 95.5505 89.2867 95.712Z" fill="#D0C2AA"/>
<path d="M70.6222 80.1066C70.4608 80.6113 70.2994 81.5602 70.1178 81.5602C64.1855 81.8832 58.2532 82.1456 52.3008 82.3273C51.4735 82.3475 50.626 81.9639 49.7786 81.7822C50.4848 79.4808 52.7245 79.6625 54.3993 78.9155C57.3251 77.9465 57.2847 75.9882 56.1144 73.6666C56.3363 73.606 56.5583 73.5657 56.7803 73.5051C58.4954 74.1713 60.1903 74.8577 61.9054 75.5239C64.7908 77.0582 67.6964 78.5925 70.6222 80.1066Z" fill="#63ABB5"/>
<path d="M78.7942 86.4457C80.3479 87.011 81.8814 87.5964 83.4351 88.1617C84.5651 89.6758 85.695 91.2101 86.825 92.7242C85.4932 91.7754 84.1615 90.8467 82.8298 89.8979C81.6796 89.3124 80.5699 88.3434 79.3794 88.2424C71.4495 87.5157 63.5196 86.9908 55.5696 86.4053C56.1547 86.2236 56.7399 86.0419 57.3251 85.8602C64.4882 86.0621 71.6311 86.2438 78.7942 86.4457Z" fill="#426F82"/>
<path d="M78.7944 86.4457C71.6312 86.2438 64.4883 86.0621 57.3252 85.8602C55.9733 85.4767 54.6012 85.0931 53.2493 84.6893C60.3317 84.6893 67.4141 84.5884 74.4763 84.7701C75.9291 84.8105 77.3416 85.8603 78.7944 86.4457Z" fill="#3F7B92"/>
<path d="M54.3791 78.9357C52.7044 79.6625 50.4647 79.4808 49.7584 81.8024C48.4065 81.8226 47.0546 81.8226 45.7027 81.8428C44.3306 82.0043 42.9585 82.1456 41.5864 82.3071C41.3846 82.3475 41.203 82.3273 41.0214 82.2667C40.7793 80.894 40.5372 79.5212 40.295 78.1686C40.6986 77.6235 41.1022 77.0582 41.5057 76.5131C42.7769 77.2601 43.9876 78.4714 45.3395 78.6531C48.3056 78.9761 51.3727 78.8549 54.3791 78.9357Z" fill="#7DA9AF"/>
<path d="M70.6222 80.1066C67.7166 78.5925 64.7909 77.0784 61.8853 75.5441C62.5713 75.3624 63.3582 74.8779 63.9232 75.0394C66.6876 75.8873 69.3712 76.9371 72.1154 77.8456C72.9427 78.108 73.8305 78.1686 74.678 78.3099C76.0904 79.1376 77.1195 80.1066 75.8483 81.8226C74.113 81.2574 72.3575 80.6921 70.6222 80.1066Z" fill="#3E6984"/>
<path d="M41.5864 82.2668C42.9585 82.1052 44.3306 81.9639 45.7027 81.8024C48.2047 82.7715 50.727 83.7203 53.229 84.6893C54.5809 85.0729 55.953 85.4565 57.3049 85.8602C56.7198 86.0419 56.1346 86.2236 55.5495 86.4053C54.3791 86.2236 53.229 86.0621 52.0587 85.8804C50.8884 85.6786 49.7181 85.4969 48.5679 85.295C46.2475 84.2856 43.927 83.2762 41.5864 82.2668Z" fill="#637685"/>
<path d="M86.8047 92.7444C85.6748 91.2303 84.5448 89.696 83.4149 88.1819C83.3947 87.4349 83.3947 86.6879 83.3745 85.941C84.5246 86.3246 85.695 86.7081 86.8451 87.1119C86.8249 87.6772 86.7442 88.2626 86.8249 88.8077C87.067 90.342 87.3697 91.8561 87.6522 93.3904C87.3899 93.1683 87.1074 92.9463 86.8047 92.7444Z" fill="#6E939C"/>
<path d="M74.6779 78.3301C73.8102 78.1686 72.9224 78.1282 72.1153 77.8658C69.3711 76.9573 66.6875 75.9075 63.9231 75.0596C63.338 74.8779 62.5712 75.3624 61.8852 75.5643C60.1701 74.8981 58.4751 74.2117 56.76 73.5455C57.5469 73.384 58.3339 73.2023 59.1208 73.0206C59.3024 73.0812 59.4638 73.1215 59.6454 73.1417C61.5623 72.7581 63.8424 72.8995 65.2952 71.8699C68.0596 69.8914 70.38 67.267 72.8417 64.8646C74.6779 63.0678 76.4737 61.2105 78.2695 59.3734C78.1081 59.1715 77.9265 58.9696 77.7651 58.7476C78.6529 58.6264 79.5609 58.5255 81.155 58.3236C79.7022 58.041 78.9758 57.8997 78.2292 57.7583C79.2381 57.0719 80.8321 57.1123 81.1348 56.5067C82.4665 53.7409 84.3229 55.4569 85.9976 55.679C86.6837 55.7799 87.3495 56.0424 88.0356 56.2442H88.0961C86.8249 59.7973 85.9169 63.5322 82.9104 66.1566C80.1662 69.0233 76.8571 71.4661 76.1105 75.8066C75.9491 76.6948 75.1622 77.4822 74.6779 78.3301Z" fill="#3B5878"/>
<path d="M82.9105 66.1364C85.917 63.5119 86.825 59.7771 88.0962 56.224C89.9929 55.6588 91.9098 55.0733 93.8065 54.508C93.0397 55.7799 92.2124 57.0315 91.5264 58.3236C91.2237 58.8889 91.143 59.5954 90.9614 60.2415C89.0042 62.8054 87.1075 65.4298 85.0897 67.9332C84.5449 68.6196 83.6167 68.9829 82.8701 69.5078C82.8903 68.3975 82.8903 67.2669 82.9105 66.1364Z" fill="#64787D"/>
<path d="M93.8065 54.508C91.9098 55.0733 89.9929 55.6588 88.0962 56.224H88.0356C88.0558 54.8714 88.076 53.5188 88.0962 52.1864C91.3852 52.8324 90.2956 48.8957 92.0712 48.4516C91.6676 47.6844 91.3246 47.0384 90.9816 46.3924C92.5353 46.776 94.0688 47.1394 95.6225 47.5229C95.8243 48.2901 96.0261 49.0572 96.2278 49.8244C95.4005 51.3789 94.6136 52.9334 93.8065 54.508Z" fill="#5D5F67"/>
<path d="M95.6023 47.5028C94.0486 47.1192 92.5151 46.7558 90.9614 46.3722C91.5466 45.4032 92.1116 44.414 92.6967 43.4449C92.6967 42.6778 92.7169 41.9106 92.7169 41.1233C94.0486 41.305 95.4005 41.4867 96.7323 41.6886C96.3691 43.6266 95.9857 45.5647 95.6023 47.5028Z" fill="#625758"/>
<path d="M92.7371 41.1435C92.7371 41.9106 92.7169 42.6778 92.7169 43.4651C90.6789 43.4651 88.641 43.3036 86.6232 43.5055C84.0606 43.7478 81.2155 43.4853 79.8434 46.5741C79.2583 47.8863 78.3503 49.0371 77.5634 50.2483C76.6352 51.6817 75.5859 53.0343 74.7385 54.508C72.8619 57.7381 71.3082 61.1701 69.1492 64.1984C67.535 66.4594 65.1742 68.2158 63.1362 70.1741C65.6383 66.8834 68.1605 63.5927 70.6625 60.302C72.418 56.3654 73.6892 52.1057 76.0904 48.6131C77.7046 46.2511 78.5521 42.7989 82.1235 42.0116C82.9105 41.8299 83.536 41.0224 84.3027 40.6388C84.8677 40.3561 85.9573 39.9524 86.0986 40.1341C87.9953 42.7585 90.4771 41.1031 92.7371 41.1435Z" fill="#514C54"/>
<path d="M70.6627 60.302C68.1606 63.5927 65.6384 66.8834 63.1363 70.1741C62.9346 70.1942 62.753 70.1942 62.5512 70.2144C62.5512 70.0125 62.531 69.8107 62.531 69.6088C65.2348 65.9345 67.9588 62.2401 70.6627 58.5659C70.6425 59.1311 70.6425 59.7166 70.6627 60.302Z" fill="#65534A"/>
<path d="M62.5107 69.5886C62.5107 69.7905 62.5309 69.9924 62.5309 70.1942C61.401 71.1229 60.2508 72.0717 59.1209 73.0004C58.3339 73.1821 57.547 73.3436 56.7601 73.5253C56.5381 73.5858 56.3162 73.6262 56.0942 73.6868C55.9126 73.4647 55.731 73.2225 55.5696 73.0004C55.7714 72.8187 55.953 72.637 56.1547 72.4553C57.6681 71.2642 59.1612 70.0529 60.6746 68.8618C61.2799 69.1041 61.9054 69.3463 62.5107 69.5886Z" fill="#74665A"/>
<path d="M22.2561 55.1742C22.5184 55.1339 22.8009 55.0935 23.0632 55.0329C31.0133 58.5053 38.9633 61.9373 46.8932 65.45C49.2742 66.4998 51.5543 67.7515 53.9151 68.8214C54.7625 69.205 55.7109 69.3261 56.6189 69.5684C56.6592 69.7501 56.6592 69.9318 56.6391 70.1337C56.0943 70.3557 55.5696 70.5778 55.0248 70.7999C51.3323 68.9426 47.6599 66.9843 43.9069 65.228C39.7099 63.2899 35.4322 61.5335 31.1949 59.6964C30.7106 59.5349 30.2062 59.3532 29.7219 59.1917C27.24 57.8593 24.738 56.5268 22.2561 55.1742Z" fill="#E3D39F"/>
<path d="M31.1949 59.6964C35.4322 61.5335 39.7099 63.2899 43.9069 65.228C47.66 66.9641 51.3121 68.9224 55.0248 70.7999C54.0967 71.2239 53.1685 71.6478 52.2403 72.0718C50.727 71.9304 48.9917 72.2333 47.7003 71.6074C41.5259 68.559 35.4927 65.2683 29.399 62.0584C31.7195 62.3814 34.0399 62.7246 36.6025 63.088C34.6655 61.8565 32.9302 60.7664 31.1949 59.6964Z" fill="#54859A"/>
<path d="M55.5495 72.9802C55.7311 73.2023 55.9127 73.4445 56.0741 73.6666C57.2444 75.9882 57.305 77.9263 54.359 78.9155C51.3324 78.8348 48.2855 78.9761 45.3194 78.5925C43.9675 78.4108 42.7568 77.1995 41.4856 76.4526C42.3532 76.1094 43.2007 75.645 44.1087 75.4432C47.9223 74.5952 51.7561 73.8079 55.5495 72.9802Z" fill="#93C1BE"/>
<path d="M40.4565 72.5563C36.3805 68.2764 31.9011 64.6021 25.989 63.1688V63.189C25.5047 62.8054 25.1012 62.2805 24.5564 62.0584C21.9736 61.049 19.3303 60.1204 16.7274 59.1513C15.9404 58.4044 15.1535 57.6574 14.3666 56.9104C15.1737 56.8499 15.9808 56.8095 16.7879 56.7489C19.3101 57.7785 21.8324 58.8081 24.3344 59.8175C25.646 60.5443 26.9575 61.2913 28.2489 62.018C31.2756 63.8148 34.3022 65.6519 37.3491 67.4083C40.295 69.1041 43.2814 70.7191 46.2475 72.3544C44.3104 72.4553 42.3734 72.4957 40.4565 72.5563Z" fill="#B1BAA0"/>
<path d="M46.2475 72.3948C43.2814 70.7393 40.295 69.1445 37.3491 67.4487C34.2821 65.6923 31.2756 63.8552 28.2489 62.0584C28.6323 62.0584 29.0157 62.0584 29.4192 62.0584C35.5129 65.2683 41.5461 68.559 47.7205 71.6074C48.9917 72.2332 50.727 71.9506 52.2605 72.0717C50.2427 72.1727 48.2451 72.2938 46.2475 72.3948Z" fill="#8CA098"/>
<path d="M40.2951 78.1282C40.5372 79.501 40.7794 80.8738 41.0215 82.2264C40.0731 82.2667 39.1248 82.3071 38.1764 82.3677C37.793 81.7822 37.3895 81.1766 37.0061 80.5911C38.0957 79.7634 39.2055 78.9357 40.2951 78.1282Z" fill="#C2C4A7"/>
<path d="M14.3464 56.9104C15.1333 57.6574 15.9202 58.4043 16.7072 59.1513C16.3238 59.5147 15.9202 59.8781 15.5369 60.2415C12.6111 58.4649 9.6853 56.7085 6.7797 54.932C6.5981 53.8014 6.4165 52.6709 6.21472 51.5404C6.5981 51.6009 7.20343 51.5202 7.3245 51.7221C8.93872 54.4475 11.9452 55.2752 14.3464 56.9104Z" fill="#C4C593"/>
<path d="M15.5369 60.2415C15.9202 59.8781 16.3238 59.5147 16.7072 59.1513C19.3303 60.1203 21.9534 61.049 24.5362 62.0584C25.081 62.2603 25.4845 62.8054 25.9688 63.1889C22.4982 62.1997 19.0074 61.2105 15.5369 60.2415Z" fill="#F6EFC1"/>
<path d="M14.3464 56.9104C11.9452 55.255 8.93876 54.4475 7.30436 51.7221C7.18329 51.5202 6.57796 51.6009 6.19458 51.5404C7.4456 51.1568 8.87823 50.1676 9.90729 50.4704C13.2165 51.5 16.3844 52.9939 19.6128 54.3062C18.6645 55.1137 17.6959 55.9414 16.7476 56.7489C15.9606 56.8095 15.1535 56.87 14.3464 56.9104Z" fill="#585A5F"/>
<path d="M16.7677 56.7691C17.7161 55.9616 18.6846 55.1339 19.6329 54.3264C20.5006 54.609 21.3682 54.8916 22.2359 55.1944C24.7177 56.5269 27.2198 57.8593 29.7017 59.1917C27.9058 59.4138 26.11 59.6358 24.3142 59.8377C21.8121 58.8081 19.2899 57.7987 16.7677 56.7691Z" fill="#545963"/>
<path d="M38.1764 82.3677C39.1248 82.3273 40.0731 82.2869 41.0215 82.2264C41.2031 82.3071 41.3847 82.3071 41.5865 82.2668C43.9271 83.2762 46.2677 84.2856 48.5882 85.295C53.0071 86.6476 57.3655 88.5251 61.8853 89.2115C67.071 89.9988 72.4383 89.6354 77.7047 89.9988C79.5409 90.12 81.9017 89.5951 82.8299 92.1186C82.4667 92.1388 82.1035 92.159 81.7403 92.159C80.7717 91.7956 79.8032 91.1899 78.8145 91.089C71.49 90.443 64.0847 90.2613 56.8207 89.1913C52.4421 88.5453 48.2451 86.587 43.9473 85.2344C41.4049 84.2654 38.8625 83.3165 36.3201 82.3475C36.9456 82.3475 37.5711 82.3677 38.1764 82.3677Z" fill="#885C50"/>
<path d="M82.8298 92.1186C81.8815 89.5749 79.5409 90.12 77.7047 89.9988C72.4383 89.6556 67.071 90.019 61.8853 89.2115C57.3655 88.5251 53.0071 86.6476 48.5881 85.295C49.7584 85.4969 50.9288 85.6786 52.0789 85.8804C56.6189 86.8495 61.1387 88.1213 65.7393 88.7068C71.389 89.4134 77.1195 89.5345 82.8298 89.9181C84.1616 90.8669 85.4933 91.7956 86.825 92.7444C87.1075 92.9665 87.39 93.1684 87.6927 93.3904C87.612 93.6125 87.5514 93.8548 87.4707 94.0768C85.917 93.4106 84.3835 92.7646 82.8298 92.1186Z" fill="#745D56"/>
<path d="M82.8298 89.9181C77.1397 89.5345 71.4092 89.4134 65.7392 88.7068C61.1387 88.1213 56.639 86.8495 52.0789 85.8804C53.2492 86.0621 54.3993 86.2438 55.5696 86.4053C63.4995 86.9908 71.4495 87.5359 79.3794 88.2424C80.5699 88.3636 81.6797 89.3326 82.8298 89.9181Z" fill="#4E626F"/>
<path d="M59.1208 73.0206C60.2508 72.0919 61.4009 71.1431 62.5309 70.2144C62.7327 70.1942 62.9143 70.1943 63.116 70.1741C65.154 68.1956 67.5148 66.4594 69.129 64.1984C71.2881 61.1903 72.8417 57.7382 74.7183 54.508C75.5859 53.0343 76.615 51.6817 77.5432 50.2483C78.3301 49.0371 79.2381 47.8661 79.8233 46.5741C81.1954 43.4853 84.0404 43.7478 86.603 43.5055C88.6208 43.3036 90.6587 43.4651 92.6967 43.4651C92.1115 44.4342 91.5466 45.4234 90.9614 46.3924C91.3044 47.0384 91.6474 47.6844 92.051 48.4516C90.2754 48.9159 91.3851 52.8324 88.076 52.1864C87.8742 49.784 85.7354 48.9159 82.0226 49.8648C81.4778 50.8742 80.7918 51.6817 80.0049 52.4085C78.7135 53.6198 77.18 54.609 76.1105 55.9616C72.4785 60.5241 69.1694 65.3693 65.376 69.7703C64.0039 71.3652 61.5825 72.0314 59.6455 73.1215C59.4841 73.1013 59.3024 73.061 59.1208 73.0206Z" fill="#485161"/>
<path d="M59.6658 73.1215C61.6028 72.0314 64.0242 71.3652 65.3963 69.7703C69.1897 65.3491 72.4988 60.5241 76.1308 55.9616C77.2204 54.609 78.754 53.6198 80.0252 52.4085C80.7919 51.6817 81.4981 50.8742 82.0429 49.8648C85.7557 48.8957 87.8945 49.784 88.0963 52.1864C88.0761 53.539 88.0559 54.8916 88.0357 56.224C87.3497 56.0221 86.6838 55.7597 85.9978 55.6588C84.323 55.4367 82.4667 53.7207 81.1349 56.4865C80.8524 57.0921 79.2382 57.0517 78.2293 57.7381C78.9759 57.8795 79.7023 58.0208 81.1551 58.3034C79.5611 58.5053 78.6531 58.6264 77.7652 58.7274C77.9267 58.9292 78.1083 59.1311 78.2697 59.3532C76.4537 61.1903 74.678 63.0476 72.8419 64.8444C70.3802 67.2468 68.0597 69.8712 65.2954 71.8497C63.8628 72.8994 61.5625 72.7379 59.6658 73.1215Z" fill="#41526A"/>
<path d="M24.3345 59.8377C26.1303 59.6156 27.9261 59.3936 29.7219 59.1917C30.2062 59.3532 30.7107 59.5349 31.1949 59.6964C32.9302 60.7865 34.6655 61.8565 36.6227 63.088C34.0602 62.7246 31.7397 62.4016 29.4193 62.0584C29.0359 62.0584 28.6525 62.0584 28.249 62.0584C26.9374 61.3114 25.6259 60.5847 24.3345 59.8377Z" fill="#5692AF"/>
</svg>
