<svg width="117" height="92" viewBox="0 0 117 92" fill="none" xmlns="http://www.w3.org/2000/svg">
<g clip-path="url(#clip0_77_603)">
<rect width="117" height="92" fill="white"/>
<path d="M116.91 46.2708C116.597 46.0451 115.386 45.5034 113.324 44.6457C111.262 43.788 109.379 43.0206 107.766 42.3886V42.3435C107.452 42.2983 107.228 42.208 107.003 42.0275C106.914 41.9823 106.824 42.0726 106.735 42.2983C106.645 42.4789 106.645 42.7046 106.69 42.9754C106.735 43.2012 106.824 43.3817 106.959 43.4269C106.735 44.0137 106.421 44.9166 105.972 46.1354C105.569 47.3543 105.166 48.3925 104.852 49.2954C104.538 50.1982 104.269 50.9656 104.045 51.5525L103.91 51.9136C103.821 52.1845 103.641 52.5005 103.372 52.8616C103.283 52.997 103.103 53.2227 102.879 53.5387C102.924 53.5387 103.014 53.5839 103.103 53.6742C103.193 53.7193 103.238 53.7645 103.238 53.7645C103.641 53.8999 104 53.8547 104.269 53.4936C104.448 53.2679 104.672 52.9519 104.852 52.4553L104.941 52.1845L104.986 52.0039C105.659 52.1845 106.421 52.4102 107.228 52.6359C108.035 52.8616 108.617 53.0873 109.021 53.2228L109.648 53.4485C109.917 53.5387 110.366 53.7193 110.948 54.0353C112.248 54.6222 113.1 55.0284 113.548 55.2993C113.728 55.3444 113.907 55.2993 114.041 55.1639C114.176 55.0736 114.266 54.893 114.355 54.7576L114.4 54.4867C113.145 53.9902 112.159 53.629 111.397 53.313C110.635 52.997 110.141 52.7713 109.828 52.5908L105.345 50.6045C105.659 49.7919 106.062 48.3022 106.6 46.2257C106.914 44.9617 107.183 44.0589 107.272 43.5623L109.021 44.2394C109.783 44.5103 110.993 45.052 112.697 45.7743C114.4 46.4965 115.521 46.9931 116.148 47.2188C116.283 47.1285 116.417 46.9931 116.552 46.8577C116.731 46.7223 116.821 46.5868 116.821 46.5417C117.045 46.3611 117 46.316 116.91 46.2708Z" fill="#006A81"/>
<path d="M109.11 65.998C109.066 65.998 109.066 65.9529 109.021 65.9529C108.886 65.9529 108.752 65.9077 108.662 65.9077C108.348 66.4946 108.079 66.9009 107.945 67.0814C107.9 67.1266 107.855 67.2169 107.81 67.262C107.766 67.3071 107.721 67.3523 107.721 67.3523C107.497 67.2168 107.317 66.6751 107.138 65.7723C106.824 64.1472 106.51 62.838 106.197 61.7998C105.569 59.6329 104.628 57.2855 103.462 54.7576L103.372 54.6673C103.148 54.4867 102.7 54.4416 101.983 54.5319C101.31 54.6222 100.907 54.7124 100.862 54.8479L100.907 54.893C101.086 54.9381 101.221 54.9833 101.31 55.0736C101.4 55.1187 101.579 55.2541 101.759 55.3896C102.655 56.0667 103.507 57.2404 104.359 58.9107C105.21 60.5809 105.838 62.3866 106.241 64.2826C105.076 64.0569 103.686 63.6958 102.117 63.2443C100.145 62.7026 98.9793 62.3415 98.6207 62.2512C97.5448 62.0255 96.8724 61.9803 96.5586 62.1158C96.469 62.1609 96.2897 62.2963 96.0655 62.5221C95.8414 62.7478 95.6172 62.9735 95.4828 63.1992C95.2138 63.5603 95.1241 63.8312 95.2586 63.9215L95.3931 63.9666C95.7069 63.6506 96.7379 63.6506 98.531 63.9215C99.7414 64.102 101.4 64.4632 103.417 64.9597C105.345 65.4112 106.376 65.6369 106.51 65.682C106.6 65.7272 106.645 65.998 106.734 66.4494C106.869 67.4426 107.003 68.4808 107.093 69.474L107.272 69.6997C107.407 69.79 107.497 69.79 107.631 69.7448C107.766 69.6997 107.855 69.6094 107.945 69.474L108.124 69.2483L109.424 66.1786C109.334 66.0883 109.245 66.0431 109.11 65.998Z" fill="#006A81"/>
<path d="M87.6828 71.6408C87.5483 71.7311 87.369 72.0019 87.1448 72.4534C86.9207 72.9048 86.7414 73.1757 86.6517 73.2659L86.4724 73.3111C86.3828 73.3562 86.2035 73.3562 86.069 73.3111C85.8897 73.2659 85.8 73.2208 85.7104 73.1305L85.6655 72.9951C85.7104 72.8145 85.9793 72.4985 86.3828 72.0471C86.7862 71.6408 87.1448 71.2797 87.4138 71.054L86.831 70.3317C87.2345 70.0157 87.5035 69.9254 87.7276 70.0608C87.9517 70.1963 88.0862 70.2865 88.131 70.2865C88.5793 69.8351 89.0724 69.3837 89.5655 68.8871C90.0586 68.3906 90.5517 67.9391 91 67.578C91.7621 66.946 92.6138 66.4043 93.4655 65.9529C94.0931 65.682 94.6759 65.5466 95.169 65.5917C95.7069 65.6369 96.1104 65.8175 96.3793 66.1786C96.6035 66.4946 96.7828 66.9009 96.8724 67.4426C97.0069 68.4808 96.8724 69.6094 96.469 70.8282C96.0655 72.0019 95.5276 72.9499 94.8552 73.7174L94.5862 73.9431C94.1828 74.2591 93.6897 74.5299 93.1069 74.7105C92.5241 74.8911 92.1207 74.8459 91.9414 74.6202L91.8966 74.5299C91.8517 74.4848 91.8966 74.3945 91.9862 74.3493C92.4345 74.0785 92.9276 73.8528 93.3759 73.5819C93.8241 73.3111 94.1828 73.0854 94.4517 72.8597C94.8104 72.5888 95.1241 72.2728 95.3931 71.8665C95.6621 71.5054 95.8862 71.0991 96.0655 70.6025C96.2 70.2414 96.2 69.7448 96.1103 69.158C95.9759 68.5711 95.7517 68.0746 95.4379 67.6683C95.3035 67.5329 95.2138 67.4426 95.169 67.3523C95.0793 67.262 94.9897 67.2169 94.8104 67.0814C94.2276 66.8106 93.5552 66.8557 92.8379 67.0814C92.2104 67.3072 91.5828 67.7134 90.9104 68.2551C90.4621 68.6163 89.969 69.1128 89.431 69.6546C88.9379 70.1963 88.5793 70.5574 88.4448 70.738C88.7586 71.1442 89.2517 71.7762 89.9241 72.6339C90.5966 73.4916 91.0897 74.1236 91.4035 74.5751C91.7172 74.9813 92.2552 75.6133 92.9724 76.4259C93.6897 77.2385 94.2276 77.8704 94.5414 78.3219C94.2276 78.5024 94.0035 78.6379 93.869 78.7281C93.3759 78.9539 93.0621 78.999 92.9276 78.8184L92.6138 78.4573C92.2552 78.0059 91.8069 77.3739 91.269 76.6065C90.731 75.7939 90.1931 74.9813 89.6552 74.1688C89.1172 73.3562 88.6241 72.6791 88.2207 72.1374L87.6828 71.6408Z" fill="#006A81"/>
<path d="M82.1689 88.4789C82.2586 88.3886 82.3034 88.2983 82.3931 88.208C82.3931 88.1177 82.4379 88.0726 82.4379 87.9823C82.5276 87.6663 82.6172 87.3503 82.7965 87.0343C82.8862 86.8989 82.931 86.7183 83.0207 86.5829C82.931 86.628 82.8862 86.6732 82.8413 86.6732C82.7517 86.7183 82.7069 86.7183 82.6172 86.7635C82.5724 86.8086 82.5276 86.8086 82.4827 86.8086C82.3931 86.5829 82.4827 85.9961 82.7517 85.1383C83.2448 83.5584 83.6482 82.2492 83.8724 81.211C84.3655 78.999 84.6793 76.5162 84.8586 73.7173L84.8138 73.6271C84.6793 73.3562 84.3207 73.1305 83.6931 72.8596C83.0655 72.5888 82.662 72.4985 82.5276 72.5888L82.5724 72.6339C82.7069 72.7694 82.7965 72.8596 82.8413 72.9951C82.8862 73.0854 82.9758 73.2659 83.1103 73.4916C83.5586 74.4848 83.7379 75.9293 83.6931 77.8253C83.6034 79.7213 83.2896 81.5721 82.7517 83.4229C81.8551 82.6555 80.8241 81.6624 79.6586 80.4887C78.2241 79.0441 77.3724 78.1864 77.0586 77.9156C76.2517 77.1933 75.6689 76.8322 75.3551 76.787C75.2655 76.787 75.0413 76.787 74.7276 76.8773C74.4138 76.9676 74.1 77.0579 73.8758 77.1482C73.4724 77.3287 73.2931 77.5093 73.3379 77.6899L73.4724 77.7802C73.8758 77.6899 74.8172 78.1864 76.2069 79.2699C77.1931 80.0373 78.4482 81.1207 79.9724 82.5652C81.4069 83.9195 82.2138 84.5966 82.3034 84.6869C82.3482 84.7772 82.2586 85.0481 82.1241 85.4995C81.7207 86.4475 81.362 87.3955 81.0034 88.3434L81.0482 88.6143C81.0931 88.7497 81.2276 88.84 81.3172 88.84C81.4517 88.84 81.5862 88.84 81.7207 88.7497L81.9896 88.6143L82.1689 88.4789Z" fill="#006A81"/>
<path d="M65.4483 80.579C65.1345 80.6241 64.5517 80.7595 63.6552 80.9401C62.7586 81.1207 62.3104 81.211 62.2655 81.211C61.8621 81.2561 61.5931 81.3012 61.4586 81.3464C61.2793 81.3464 61.1448 81.3464 61.0552 81.3464C60.6966 81.3012 60.4276 80.0373 60.1586 79.8567C59.9345 79.6761 59.7552 79.4504 59.7552 79.2698L59.8 79.0893H59.8897C60.8311 79.0893 61.7724 80.1727 62.7138 80.1275C63.7 80.0824 64.5966 79.947 65.4035 79.8116C65.3586 79.5407 65.3138 79.3601 65.3586 79.2698C65.3586 79.1796 65.4483 79.0893 65.5379 78.999H65.6276C65.7173 78.999 65.8517 79.0441 65.9414 79.1796C66.0759 79.315 66.1655 79.4504 66.1655 79.5858L66.2104 79.7213C66.4345 79.6761 66.6586 79.631 66.9276 79.631C67.1966 79.5858 67.5104 79.5858 67.8242 79.5407C68.4966 79.4053 69.2586 79.2698 70.1552 79.0441C71.0069 78.8184 71.6345 79.4504 71.9931 79.4053C72.0379 79.4053 72.0379 79.4053 72.0828 79.4504C72.0828 79.4956 72.1276 79.4956 72.1276 79.5407C72.1276 79.6761 71.4552 79.1796 70.0655 79.5858C68.6759 79.9921 67.5552 80.263 66.7483 80.3984L66.3 80.4887L66.7483 85.6349C66.8828 86.4023 66.9724 86.944 67.0621 87.2149C67.2414 87.8469 67.2414 88.7046 67.5552 89.0657C67.6448 89.2463 66.9724 89.0206 67.2414 88.9754C67.6 88.9303 68.1379 88.6143 68.8104 88.1177C68.9897 87.9823 67.9138 87.26 68.5414 86.7183C68.631 86.6732 69.8414 86.628 69.9759 86.5829C70.0655 86.5829 70.1552 86.5829 70.2448 86.628C70.3345 86.6732 69.2586 86.7183 69.2586 86.7635C69.2586 86.8537 69.2138 86.8989 69.1242 86.9892C68.7207 87.3503 69.6173 88.1629 68.7655 88.6594C67.7793 89.2463 68.1379 89.5623 67.5552 89.6526C67.0173 89.7429 66.6138 89.6526 66.3 89.3366C66.0759 89.1109 65.8966 88.7046 65.8069 88.1177C65.7621 87.7566 65.7173 87.3955 65.6724 87.0343C65.6276 85.996 65.5828 85.4092 65.5828 85.3189C65.5379 85.0029 65.4931 84.2355 65.4483 83.0167C65.5379 81.6624 65.4931 80.895 65.4483 80.579Z" fill="#006A81"/>
<path d="M56.169 91.2326C56.2586 91.1874 55.9897 90.7811 56.1241 90.736C56.2586 90.736 56.7069 91.1423 56.7517 91.2326C56.7966 91.2777 56.8414 91.368 56.8414 91.5034C56.7069 91.684 56.4828 91.8194 56.2138 91.9097C55.9448 91.9548 55.631 92 55.3172 91.9548C55.1379 91.9548 55.0035 91.9097 54.8241 91.8645C54.6448 91.8194 54.4655 91.8194 54.2414 91.7743C54.0621 91.7743 53.7931 91.052 53.4345 89.6074C53.0759 88.1629 53.1207 86.6732 52.8517 85.0481C52.5379 83.2875 53.1655 82.1138 53.2552 81.4818C53.0759 81.5721 52.8966 81.7978 52.6276 82.2041C52.1793 82.9715 51.7759 83.5584 51.4172 84.0549C50.6552 85.0481 50.0724 86.1766 48.8621 87.3503C48.3241 87.892 48.0552 88.1629 47.7414 88.4789C47.2035 89.0206 46.9345 89.6074 45.6793 89.472C45.5448 89.472 45.8586 89.4269 45.769 89.3817C45.5 89.2012 45.2759 88.6143 45.1862 87.6663C45.0966 86.944 45.0966 85.9509 45.1414 84.7321C45.1862 83.5132 45.2759 82.3847 45.3655 81.3464L45.1414 79.7664C45.1414 79.7664 45.7241 79.4504 46.1276 79.315C46.531 79.1796 46.8 79.0893 47.0241 79.1344C47.1586 79.1344 47.2035 79.1796 47.2035 79.2699C47.0241 80.0373 46.8897 80.895 46.7103 81.9784C46.531 83.0167 46.3966 84.1904 46.2621 85.4995C46.1724 86.3572 46.1724 87.0795 46.3069 87.6212C46.3966 88.1629 46.5759 88.4789 46.8 88.524C47.1586 88.5692 47.4724 87.892 48.5931 86.5378C49.0862 85.9509 50.0724 84.6418 51.5966 82.5652C52.7172 81.0304 53.4345 80.1727 53.7483 79.947C53.9724 79.8116 54.2862 79.7213 54.7345 79.6761C55.1828 79.631 55.5862 79.5858 55.9 79.631C56.169 79.6761 56.3483 79.7213 56.3035 79.7664C55.7655 80.0373 55.3172 80.3533 54.9586 80.6241C54.6 80.895 54.4207 81.2561 54.3759 81.6624C54.2862 82.5201 53.6586 83.6938 54.0172 85.1835C54.3759 86.6732 54.3759 88.0726 54.9138 89.2914C55.4069 90.5103 55.8104 91.1423 56.169 91.1874V91.2326Z" fill="#006A81"/>
<path d="M22.2345 73.1756C23.3103 72.3179 24.8793 71.8665 26.9414 71.7762C28.8241 71.6859 30.169 71.9116 30.9759 72.4082C31.2448 72.5888 31.4241 72.7242 31.4241 72.9048V72.9951C30.9759 73.2659 30.169 72.6339 29.3172 72.4082C28.4655 72.2276 27.6586 72.1825 26.7621 72.2728C25.9103 72.3631 25.0138 72.7242 24.1621 73.3111C23.2655 73.8979 22.5931 74.575 22.1896 75.3425C21.9655 75.7487 21.7862 76.1099 21.7414 76.471C21.6965 76.8322 21.7414 77.1482 21.8759 77.419C21.9207 77.7802 22.1896 78.2316 22.6827 78.683C23.1759 79.1344 23.7138 79.5858 24.3862 79.9921C25.1034 80.3984 25.8207 80.7595 26.5379 81.0304C27.2552 81.3012 27.8379 81.4367 28.2862 81.3915C29.2276 81.3464 30.1241 81.1658 31.0207 80.7595C32.0069 80.3533 32.6793 79.8116 33.0379 79.1796L33.2172 78.8636C33.6207 77.7801 33.7103 76.8773 33.3965 76.0196C33.1276 75.2973 32.4103 74.5751 31.9172 74.3042C31.3793 74.0333 31.6931 74.0333 31.1103 73.9882C30.6172 73.9431 30.4379 74.1688 29.9896 74.3042C29.9 74.3042 29.7207 74.3945 29.631 74.4396C29.5414 74.4396 29.3621 74.3945 29.2724 74.3493C29.2276 74.3042 29.1379 74.2139 29.0931 74.1688C29.0931 74.1236 29.0931 73.9882 29.0931 73.9431C29.1379 73.8979 29.2724 73.8076 29.3172 73.7625C29.9 73.5368 30.4827 73.4465 31.1103 73.4916C31.7827 73.5819 31.6034 73.7173 32.231 74.0333C32.9483 74.3945 34.0241 75.4328 34.4724 76.3356C34.9207 77.3287 34.9207 78.3219 34.3379 79.2247C33.3965 80.8047 31.7379 81.6624 29.3621 81.843C27.0759 82.0235 25.0138 81.527 23.0862 80.3533C22.5483 80.0373 22.1 79.6761 21.6517 79.2698C20.9793 78.6379 20.531 77.9156 20.3517 77.103C20.1276 76.2453 20.2621 75.4327 20.7103 74.6653C21.1586 74.1236 21.6069 73.6271 22.2345 73.1756Z" fill="#006A81"/>
<path d="M15.9586 61.5741C15.869 61.4838 15.5552 61.3032 15.1069 61.1227C14.6586 60.8969 14.2552 60.6712 14.2552 60.6712L14.2104 60.4907V60.2198C14.2104 60.1295 14.2104 60.0392 14.2552 59.949L14.3448 59.7232L14.4793 59.6781C14.4793 59.6781 15.0173 59.949 15.4655 60.3101C15.9138 60.6712 16.2724 60.9872 16.4966 61.2581L17.169 60.6261C17.5276 60.9872 17.6173 61.3032 17.5276 61.5289C17.3931 61.7546 17.3483 61.8901 17.3483 61.9352C17.8414 62.3415 18.3345 62.7929 18.8724 63.2443C19.4104 63.6958 19.8586 64.1472 20.2621 64.5535C20.9345 65.2757 21.5621 66.0432 22.1 66.9009C22.4138 67.4877 22.5931 68.0746 22.5931 68.5711C22.5931 69.1128 22.4586 69.5191 22.1 69.8351C21.831 70.106 21.4276 70.2865 20.8897 70.422C19.9035 70.6477 18.7828 70.6025 17.4828 70.2865C16.2724 69.9705 15.2862 69.5191 14.5242 68.8871L14.3 68.6614C13.9414 68.2551 13.6276 67.8037 13.4035 67.2169C13.1793 66.63 14.2552 66.946 14.5242 67.3523C14.7931 67.7586 15.0621 68.1197 15.331 68.3906C15.6448 68.7066 16.0035 68.9774 16.3621 69.2483C16.7655 69.5191 17.169 69.6997 17.6621 69.79C18.0207 69.8803 18.5138 69.8803 19.0966 69.6997C19.6793 69.5191 20.1276 69.2934 20.531 68.8871C20.6655 68.7517 20.7552 68.6614 20.8448 68.5711C20.8897 68.4808 20.9793 68.3454 21.069 68.21C21.2483 67.578 21.2035 66.946 20.8897 66.2237C20.6207 65.6369 20.1724 65.0049 19.5448 64.3729C19.1414 63.9215 18.6483 63.4701 18.0655 63.0186C17.4828 62.5672 17.0793 62.2512 16.9 62.1158C16.5414 62.4769 15.9586 63.0186 15.1517 63.7409C14.3448 64.4632 13.7621 65.0049 13.3586 65.4112C13 65.7723 12.4173 66.3592 11.6552 67.1266C10.8931 67.894 10.3104 68.4809 9.90691 68.8871C9.68277 68.6163 9.54829 68.3906 9.45863 68.21C9.18967 67.7134 9.10001 67.3974 9.27932 67.262L9.63794 66.9009C10.0414 66.4946 10.6241 65.998 11.3862 65.4112C12.1483 64.8243 12.9104 64.1923 13.6724 63.6055C14.4345 62.9735 15.0621 62.4318 15.5552 61.9804L15.9586 61.5741Z" fill="#006A81"/>
<path d="M14.569 58.0078L14.6586 58.1884C14.6586 58.1884 13.8069 57.7821 13.7621 57.6918C12.1931 58.5495 10.4448 59.4524 8.42759 60.4907C6.41034 61.5289 5.24483 62.0706 4.84138 62.1609C4.75172 62.2061 4.7069 62.1609 4.66207 62.0706C4.61724 61.9804 4.61724 61.8449 4.57241 61.6644C4.57241 61.6192 4.57241 61.6192 4.57241 61.5741C4.7069 61.3484 4.84138 61.1226 4.97586 60.8969C5.60345 60.5809 6.58966 60.0844 7.88966 59.4072C9.54828 58.5947 10.7138 57.9627 11.431 57.6015L13.0897 56.6987C12.8207 56.2924 12.2828 55.525 11.5207 54.4416C10.3103 52.681 9.45862 51.4171 9.05517 50.6045L4.66207 52.7262C4.34828 52.8616 3.85517 53.0873 3.0931 53.4485C2.37586 53.8096 1.43448 54.3062 0.268966 54.9382L0.134483 54.7124C0.0448276 54.6222 0 54.4416 0 54.261C0 54.0804 0.0896552 53.945 0.224138 53.8096C0.672414 53.629 1.56897 53.2679 2.86897 52.6359C3.45172 52.365 3.9 52.1393 4.12414 52.0039L4.7069 51.6879C5.11034 51.4622 5.64828 51.1462 6.32069 50.6948C7.03793 50.2434 7.66552 49.7919 8.24828 49.3857L8.15862 49.2502L8.02414 48.9794C7.8 48.5279 7.66552 48.1668 7.62069 47.896C7.57586 47.4445 8.65172 47.4445 8.69655 47.58C8.83103 48.0314 8.92069 48.3925 9.05517 48.6182L9.23448 48.9342C9.54828 49.4759 9.9069 50.1982 10.4 51.0108C10.8931 51.8233 11.431 52.8165 12.0586 53.8999C12.6862 54.9833 13.1345 55.841 13.4483 56.3827C13.5828 56.2924 13.7621 56.3376 13.9862 56.473C14.2103 56.6084 14.3448 56.7438 14.4345 56.9244C14.5241 57.105 14.5241 57.2404 14.4345 57.2856L14.1207 57.4661L14.569 58.0078Z" fill="#006A81"/>
<path fill-rule="evenodd" clip-rule="evenodd" d="M67.869 6.36505C76.7897 6.36505 84.0517 13.317 84.0517 21.9391C84.0517 24.8283 83.2 27.5819 81.7655 29.8842L79.6586 26.1374L73.1586 36.6555C71.5 37.1972 69.7069 37.5132 67.8241 37.5132C67.4655 37.5132 67.1069 37.5132 66.7483 37.4681L54.6448 12.9558C57.6035 8.9833 62.4 6.36505 67.869 6.36505Z" fill="#F26327"/>
<path d="M12.5966 17.8763C12.5966 17.9215 12.6414 17.9666 12.6414 17.9666C13.5379 19.8626 14.5242 21.6683 15.6448 23.4288C17.8862 26.9499 20.5311 30.2002 23.5345 33.1796C26.5379 36.159 29.8104 38.8675 33.3517 41.2149C36.8931 43.6075 40.6138 45.684 44.469 47.4897C45.4552 47.9411 46.3966 48.3474 47.3828 48.7537C62.9828 55.209 80.0621 57.1953 96.9173 58.1884C87.3242 69.4288 72.5759 76.2905 57.6483 76.1099C42.7207 75.9293 28.0173 68.7517 19.0517 57.0147C16.4069 53.5388 14.2552 49.6565 12.6862 45.5486C11.1173 41.4406 10.1311 37.107 9.77243 32.7282C9.41381 28.3494 9.63795 23.9254 10.5345 19.6369C10.7586 18.5535 11.0276 17.5152 11.3414 16.4318C11.3862 16.2964 11.4311 15.8449 11.6104 15.8449C11.7897 15.8449 11.9242 16.3415 11.969 16.4769C12.1931 17.0186 12.4173 17.4701 12.5966 17.8763Z" fill="#55A4DB"/>
<path d="M96.469 56.3827L77.6862 23.2031L67.5104 41.2601L49.4897 5.10107L39.5379 23.6997L32.9035 9.97644L26.269 21.3072" fill="#006A81"/>
<path d="M96.469 56.3827C95.5724 55.0736 94.6759 53.7645 93.7793 52.4553L91.1345 48.4828C89.3862 45.8194 87.6379 43.156 85.9345 40.4926C84.231 37.8292 82.5276 35.1207 80.869 32.4122C79.2104 29.7036 77.5069 26.9951 75.8931 24.2866H79.5241L77.1035 28.8459L74.6379 33.4053L72.1724 37.9647L69.7069 42.524L67.4207 46.6771L65.2241 42.3886C63.7 39.4092 62.1759 36.3847 60.6517 33.4053C59.1276 30.3808 57.6483 27.4014 56.169 24.3768C54.6897 21.3523 53.2104 18.3278 51.731 15.3032C50.2966 12.2787 48.8173 9.25417 47.3828 6.18449L51.5517 6.22964C49.8035 9.29931 48.1 12.369 46.3069 15.3935L43.6621 19.9529L40.9724 24.5123L39.2241 27.4465L37.9241 24.422C36.8931 22.0746 35.9069 19.7272 34.9207 17.3798C33.9345 15.0324 32.9483 12.685 32.0069 10.2924L33.5759 10.3376L29.9 15.7998C28.6897 17.6055 27.4345 19.4112 26.1793 21.2169C27.1207 19.2306 28.1069 17.2444 29.0931 15.3032L32.0517 9.43474L32.769 7.99019L33.6207 9.47988C34.8759 11.6919 36.0862 13.949 37.3414 16.1609C38.5517 18.4181 39.7621 20.63 40.9724 22.8871L37.9241 22.842L40.3448 18.1472L42.6759 13.4073C44.2448 10.2473 45.8138 7.13248 47.4276 3.97252L49.4448 0L51.5966 4.06281C53.1655 7.0422 54.7345 10.0216 56.2586 13.001C57.7828 15.9804 59.3517 19.0049 60.831 21.9843C62.3552 25.0088 63.8345 27.9882 65.3138 31.0128C66.7931 34.0373 68.2724 37.0618 69.7517 40.0864L65.269 39.9509L67.869 35.4818L70.5138 31.0128L73.1586 26.5437L75.8483 22.1197L77.7759 18.9146L79.4793 22.1197C80.9586 24.9185 82.4379 27.7625 83.8724 30.5613C85.3069 33.4053 86.7414 36.2493 88.1759 39.0932C89.6104 41.9372 91 44.7812 92.3897 47.6703L94.4517 52.0039C95.169 53.4936 95.8414 54.9382 96.469 56.3827Z" fill="#55A4DB"/>
<path d="M64.4172 50.1531L49.1759 14.265L38.5069 35.9333C41.4207 38.8675 50.4759 45.0971 64.4172 50.1531Z" fill="#55A4DB"/>
<path d="M37.5207 34.7144L32.6793 14.1747L27.3896 23.474C28.331 24.9185 33.1276 30.9225 37.5207 34.7144Z" fill="#55A4DB"/>
<path d="M90.5069 55.1188L77.9552 31.1482L69.1242 51.3268C68.6311 51.7782 81.9448 54.261 90.5069 55.1188Z" fill="#55A4DB"/>
<path d="M24.7897 23.8803C24.8345 23.8803 24.8793 23.9254 24.969 23.9705C25.1483 24.1511 25.2828 24.4671 25.4173 24.6928C25.7311 25.1442 26.0449 25.5957 26.3138 26.0471C27.569 27.8076 28.9138 29.523 30.3931 31.1482C33.3069 34.3984 36.5793 37.3327 40.1207 39.9509C43.6621 42.5692 47.4725 44.8263 51.4621 46.7674C52.269 47.1737 53.0759 47.5348 53.8828 47.896C54.2862 48.0765 54.6897 48.2571 55.0931 48.4377C55.4069 48.5731 55.9449 48.9342 56.2587 48.9342C68.9449 54.0805 83.3345 56.1119 97.0518 56.5633C83.3345 56.789 68.9449 55.3444 56.0345 50.8754C43.1242 46.4063 31.1552 38.6869 22.8621 27.9431C22.7724 27.8528 23.5793 26.3631 23.669 26.1825C23.938 25.5957 24.2518 24.9637 24.5207 24.3768C24.6104 24.0157 24.6552 23.8351 24.7897 23.8803Z" fill="#FBB03B"/>
<path d="M54.8242 69.2031C59.1724 68.5712 62.4448 63.6055 62.4448 63.6055C62.4448 63.6055 64.3276 66.4043 67.3311 66.5849C70.3345 66.7203 71.2311 67.3523 74.8621 63.6055C74.8621 63.6055 76.6552 67.8037 84.3207 69.0677C84.3207 69.0677 79.9724 69.3837 75.6242 68.1197C75.6242 68.1197 71.2759 69.9706 68.8552 70.2866C68.6311 70.1511 66.2552 71.0991 61.5035 68.2552C61.4586 68.2552 59.6207 69.5643 54.8242 69.2031Z" fill="white"/>
<path d="M40.9276 69.2031C45.6345 68.5712 48.369 63.6055 48.369 63.6055C48.369 63.6055 51.1035 66.4043 54.3759 66.5849C57.6035 66.7203 58.5897 67.3523 62.4897 63.6055C62.4897 63.6055 64.4173 67.8037 72.6655 69.0677C72.6655 69.0677 67.9586 69.3837 63.2966 68.1197C63.2966 68.1197 58.5897 69.9706 56.0345 70.2866C55.7655 70.1511 53.2104 71.0991 48.1 68.2552C48.0552 68.2552 46.0828 69.5643 40.9276 69.2031Z" fill="white"/>
<path d="M39.4932 60.2198C43.3035 59.7233 45.5449 55.6605 45.5449 55.6605C45.5449 55.6605 47.7863 57.9627 50.4311 58.053C53.0759 58.1884 53.8828 58.685 57.0208 55.6605C57.0208 55.6605 58.5897 59.0913 65.3139 60.0844C65.3139 60.0844 61.5035 60.3553 57.6483 59.317C57.6483 59.317 53.838 60.8518 51.7311 61.0775C51.507 60.9421 49.4449 61.7547 45.2759 59.4073C45.3208 59.4524 43.707 60.5358 39.4932 60.2198Z" fill="white"/>
<path d="M30.4828 68.5712C30.2586 68.3906 29.9897 68.21 29.8104 68.1197C29.5862 68.0294 29.5414 67.9392 29.4517 67.9392H29.4069C29.3621 67.894 29.3621 67.8489 29.3173 67.8037C31.9173 66.1335 33.3966 63.6055 33.3966 63.6055C33.3966 63.6055 36.2655 66.4043 39.6724 66.5849C43.0345 66.7203 44.0655 67.3523 48.1448 63.6055C48.1448 63.6055 50.1621 67.8037 58.8138 69.0677C58.8138 69.0677 53.9276 69.3837 48.9966 68.1197C48.9966 68.1197 44.1104 69.9706 41.3759 70.2866C41.1069 70.1511 38.4173 71.0991 33.0828 68.2552C33.0828 68.2552 32.5 68.7517 31.2 69.0226C31.1104 68.9323 30.8414 68.7517 30.7069 68.7066C30.6173 68.6614 30.5276 68.6163 30.4828 68.5712Z" fill="white"/>
<path d="M16.6311 54.577C19.9931 54.7125 20.9793 55.3445 25.0138 51.5977C25.0138 51.5977 27.0311 55.7959 35.5931 57.0599C35.5931 57.0599 30.7069 57.3759 25.8655 56.1119L19.6345 58.1433C19.6345 58.1433 19.3207 57.8273 19.1862 57.7821C19.0966 57.6016 18.9621 57.421 18.6931 57.3307C18.6483 57.2856 18.6483 57.2404 18.6035 57.1502C18.6035 56.789 18.4242 56.4279 17.9759 56.3376C17.9311 56.2022 17.8414 56.1119 17.7518 56.0216C17.7518 55.6605 17.5724 55.3445 17.1242 55.2542C17.0793 55.1188 16.9897 54.9382 16.9 54.8479C16.8104 54.7576 16.6759 54.7125 16.5862 54.6673C16.5862 54.6222 16.5414 54.577 16.4966 54.5319C16.5414 54.577 16.5862 54.577 16.6311 54.577Z" fill="white"/>
</g>
<defs>
<clipPath id="clip0_77_603">
<rect width="117" height="92" fill="white"/>
</clipPath>
</defs>
</svg>
